<svg xmlns="http://www.w3.org/2000/svg" xml:space="preserve" fill-rule="evenodd" clip-rule="evenodd" image-rendering="optimizeQuality" shape-rendering="geometricPrecision" text-rendering="geometricPrecision" viewBox="0 0 37.7 37.7">
  <path fill="currentColor" d="M37.7 18.8a18.8 18.8 0 1 1-37.7 0 18.8 18.8 0 0 1 37.7 0z"/>
  <path fill="#FDFDFB" d="M21.5 4.9c1.6 0 2.7 1 2.7 2.6s-1.1 2.8-2.7 2.7a2.7 2.7 0 0 1-2.7-2.7C18.8 6 20 5 21.5 5zM30 19.8c.3-.6.1-1.2.4-1.6.9-1.4 2.6-1.1 3.2.2.3.7-.1 1.1-.6 1.6-.3.3-1 .3-.9.8.3 1 1.6.2 1.9 1-1.2.5-2 0-3-.7s-1-.7-1.4.5c-.4 2-1.4 3.7-3 5-1.2.7-1.6 1.6-1.4 2.8V31c0 .6-.2 1-.8.4-.5-.5-1-.5-1.6 0-.6.5-.8.3-.9-.5 0-1.8 0-1.8-1.8-1.4-1.7.3-3.4.3-5.1-.1-1.6-.4-1.7-.3-1.7 1.2 0 1-.2 1.3-1 .6-.6-.4-1 0-1.5.2-.4.3-.8.4-.7-.3.4-2.5-.5-4.3-2.5-5.7-1-.6-.7-2.4-2.8-2.1-1.7.3-1-1.3-1.2-2.4-.1-1 .1-1.6 1.3-1.5 1.2.2.8-1.3 1.4-2 1.7-2 1.5-4.5 1.5-7 0-1.5 0-1.5 1.6-1 .8.3 1.7.7 2.2 1.5.7 1 1.5.8 2.4.6 3.5-.8 7-.6 10.2 1 3 1.5 5 3.6 5.5 7l.3.4zm-11.8-4.9h-3c-.3 0-.8 0-.7.6 0 .5.4.4.7.4h6c.2 0 .7 0 .7-.4 0-.6-.5-.6-.8-.6h-2.9zM32 18.1c-.5 0-1 .1-1.1.9 0 .5 0 1 .7.9.8 0 1.3-.4 1.4-1.1.1-.8-.6-.5-1-.7z"/>
</svg>
