<svg xmlns="http://www.w3.org/2000/svg" xml:space="preserve" fill-rule="evenodd" clip-rule="evenodd" image-rendering="optimizeQuality" shape-rendering="geometricPrecision" text-rendering="geometricPrecision" viewBox="0 0 50.3 50.3">
  <path fill="currentColor" d="M50.3 25.1a25.1 25.1 0 1 1-50.3 0 25.1 25.1 0 0 1 50.3 0z"/>
  <path fill="#FBFBF6" d="M26.8 30.5c.2-1.3.2-2.3.8-3.2 1.4-2 4.2-2 5.6-.2 1.2 1.5 1.3 4.8.2 6.4a3.5 3.5 0 0 1-6.3-1l-.3-2zm4.8-.1c0 .8-.2 1.4-1.1 1.4-.9 0-1.1-.8-1.1-1.5s.2-1.4 1-1.4c1.1 0 1.1.8 1.2 1.5zm-14.7-8c0-3 1.3-4.6 3.6-4.6 3.3 0 4.1 3.5 3.5 6-.5 2.1-1.7 3.2-3.6 3.1-1.9 0-3.1-1.2-3.4-3.3l-.1-1.1zm4.8-.1c0 .7-.2 1.5-1.2 1.5-.8 0-1-.7-1-1.5s.1-1.5 1.1-1.5c.9 0 1 .8 1 1.5zM32.2 19c0 .7-.3 1-.6 1.4L21.3 34c-.5.8-1 1.4-2 .6-1-.7-.9-1.3-.3-2.2l10.3-13.7c.4-.6.9-1.2 1.8-.9.6.2 1 .7 1 1.1z"/>
</svg>
