<svg xmlns="http://www.w3.org/2000/svg" xml:space="preserve" fill-rule="evenodd" clip-rule="evenodd" image-rendering="optimizeQuality" shape-rendering="geometricPrecision" text-rendering="geometricPrecision" viewBox="0 0 49.8 49.8">
  <circle cx="24.9" cy="24.9" r="24.9" fill="currentcolor"/>
  <path fill="#fff" d="M28.4 37c-5 0-9-2.7-10.8-7.3-.4-.9-4.6.9-4.6-1.9 0-2 2.3-1.7 3.7-1.7v-2.4c-1.3 0-4 .3-3.7-1.8.3-2.7 4.2-.9 4.6-1.8 3.7-9.2 15.1-8 15-5 0 1.3-1 2-2.5 1.5-3.5-1.2-7 .5-8.9 3.7h7.2c2 .4 2 3.4-.3 3.4h-8V26h8.3c2 .3 2 3.4-.3 3.4h-7c2.6 3.4 4.4 4.7 9 3.7 1.9-.4 3.4 2.8-.1 3.5l-1.6.2z"/>
</svg>
