<svg xmlns="http://www.w3.org/2000/svg" xml:space="preserve" fill-rule="evenodd" clip-rule="evenodd" image-rendering="optimizeQuality" shape-rendering="geometricPrecision" text-rendering="geometricPrecision" viewBox="0 0 2000 733">
  <path fill="currentColor" fill-rule="nonzero" d="M790 270c-10 0-12-57-12-67l2-52c-2 3-24 36-24 19 0-9 25-29 25-30 2-3 12-140 41-140 23 0 1 35-5 46-10 20-18 59-22 84 44-24 80 14 40 81-29 49-52 36-41 8 3-9 26-58 32-58s-28 49-28 72c0 20 56-55 35-95-8-14-26-7-39 1-4 25-13 93-4 117 2 4 4 14 0 14zm77 124c-55 0-52-71 50-123 17-9 35-15 56-19 3-37-5-92-15-125-10 27-20 49-28 67-17 36-11 42-18 51-7 8-13 2-14-13-2-22 6-111-24-111-13 0-28 27-28 18s65-81 65 45l-3 38 48-103s-10-20 5-20c11 0 13 18 16 35 6 35 9 81 6 116 5-1 47-8 47-3 0 4-32 6-48 10-10 56-40 114-91 132-9 3-17 5-24 5zm-4-9c33 0 71-36 86-60 12-19 20-41 23-66-115 32-161 126-109 126zM47 621c-45 0-51-71 29-110 22-11 44-14 68-13 11-39 18-92 4-130-9-26-24-23-42-5-41 42-76 149-89 199-4 18-17 10-17 7 0-24 5-35 11-56 13-44 21-107 31-153 4-19 23-3 20 5-10 29-13 47-20 77 15-32 62-132 104-101 21 16 27 61 27 86 0 23-4 47-11 72 12 2 25 5 37 11-5-16 12-32 22-20 8 9-11 17-1 29 25 28-6 63 2 74 7 10 76-57 89-79 4-7 31-9-16 41-8 8-76 77-89 44-5-12 2-33 6-42 9-18 1-27-5-35-5 10-12-6-49-11-14 42-41 81-81 101-12 6-22 9-30 9zm1751 112c-24 0-17-27-7-45 22-41 71-90 108-122-27-13-71 27-71 2 0-14 14-6 43-36 49-52-24-50-32-1-1 8-12 11-16 3-27 26-65 50-87 40-7-3-11-9-12-16-87 89-101 39-80-1 9-19 1-27-6-35l-42 41c-27 21-53 14-45-28-8 7-64 53-66 24-1-10 7-23 9-32-23 20-17 42-33 39-17-2 3-29 3-50l1-2c-12 0-31 51-37 54s-14-1-13-7l17-55c-23 16-55 62-77 62-10 0-15-11-13-25-38 58-60 29-39-12 9-17 29-41 47-24 7-13 21-4 17 6-5 13-12 26-8 43 2 12 61-72 85-64 9 3 5 16 3 22 18-23 34-17 32 13 7-9 18-19 27-8 8 10-6 30-5 37 18-10 49-32 56-42 1-2 5-22 18-13 11 7-10 27-10 55 0 29 66-44 66-44-7-17 11-34 21-22 9 9-11 17 0 29 25 28-6 63 1 74 7 10 69-51 77-62 10-20 24-30 35-33 34-8 22 40-28 48-10 44 76-13 90-33 38-58 114-30 44 36 13-1 29-1 41 7 20-17 58-42 80-46 8-1 11 11 2 12-22 5-54 27-74 43 27 47-74 168-122 168zm2-13c37 0 123-106 108-145-34 28-96 90-112 130-3 8-4 15 4 15zM47 608c25 0 54-27 67-46 12-16 20-33 27-52-113 3-138 98-94 98zm271-22c-12 0-9-23 3-23 11 0 10 23-3 23zm315 42c-22 0-24-53-24-64 0-20 2-42 5-66l-61 4c-20 28-80 113-91 122-5 3-12-6-9-10 16-18 38-57 16-79-20-20-36-16-41-20-4-4 1-9 4-9l113-14 107-153c8-7 13 3 11 7-15 35-28 102-33 140 16 2 26 8 32 13 7-23 28-11 24-1-4 8-10 13-3 21 26 28-6 63 2 74 8 10 81-62 88-77 2-4 5-24 18-15 11 7-9 27-9 55s60-39 61-40c30-33 55-17 40 5-7 10-22 21-43 25-11 46 83-18 90-32v-3c12-49 35-104 44-119 8-12 25-4 16 9-14 21-83 197-38 176 23-11 47-46 62-65 4-5 14-1 10 6-8 15-60 85-89 73-17-7-13-38-10-55-20 18-48 40-73 40-20 0-28-11-25-27-12 11-30 31-48 25-12-4-14-17-13-28-9 10-83 88-97 53-5-12 2-33 6-42 11-21-1-28-8-39-11 5-1-17-39-20-16 129 18 108 18 122 0 6-7 8-13 8zm-143-60 46-63-71 10c18 11 27 31 25 53zm72-79 54-4c6-36 13-72 22-104l-76 108zm230 4c-14 0 3-34 12-20 5 7-4 20-12 20zm56 37c9-4 24-14 27-21-9 0-21 13-27 21zm27-21zm251 118c-5 0-8-4-7-8l30-112c-24-18-15-45 9-31 5-15 30-100 38-116 7-15 38-4 15 18-11 10-23 53-30 74 22-41 71-121 123-96 14 6 20 23 20 39-2 59-73 133-131 128 20 36 52 90 100 90 5 0 11-17 20-7 18 21-62 41-106-33l-29-52-13-4c-14 35-17 47-26 85-5 20-5 26-13 25zm27-136 2-3-5-3 3 6zm43 20c74-5 142-120 103-144-19-12-51 9-73 38s-36 54-51 88l11 17 10 1zm111 53c6 0 31-38 33-41-9-13-33 28-33 41 0 0-1 0 0 0zm259-73c-16 0 10-29 15-29 8 0 11 9 7 12l-22 17zm187 29-4 8c8-4 20-13 22-19-5 0-12 5-18 11zm19-11z"/>
</svg>
