<svg xmlns="http://www.w3.org/2000/svg" xml:space="preserve" fill-rule="evenodd" clip-rule="evenodd" image-rendering="optimizeQuality" shape-rendering="geometricPrecision" text-rendering="geometricPrecision" viewBox="0 0 1290 265.2">
  <path fill="currentColor" fill-rule="nonzero" d="M159 200.3c-25.9 0-29.6-40.9 16.4-63.4a80.6 80.6 0 0 1 39.9-7.7c6-22.4 10.5-53.3 2.4-75.3-5.5-14.8-14.2-13-24.4-2.8-23.7 24-44 86.6-51.6 115.5-2.7 10.4-10 5.9-10 3.6 0-13.5 3-20 6.4-32.2 7.6-25.2 12-61.9 17.9-88.9 2.5-11 13.5-1.6 11.9 3.1-6.2 17-8 27.1-12.1 44.6 8.7-18.2 36.1-76.5 60.2-58.2 12.2 9.3 15.7 35.2 15.7 49.8 0 13.1-2 27-6 41.6 7 1 14 3 21 6.3-2.8-9.5 7-18.3 12.9-11.8 4.8 5.5-6.5 10-.6 16.7 14.7 16.5-3.4 37 1.2 43.1 4.3 6 43.8-33.2 51.3-45.4 2.8-4.6 18.4-5.8-9.2 23.4-4.2 4.5-44 44.7-51.6 25.3-2.6-6.9 1.2-19 3.7-23.8 5.6-11 1-15.7-3-20.4-2.8 5.4-7-3.5-28-6.3-8.1 24.2-23.8 46.8-47.3 58.3a40.6 40.6 0 0 1-17.2 5zm1014.4 65c-14 0-10.2-15.3-4.6-25.7 13-23.7 41.3-52.3 63-70.6-16-8-41.1 15.1-41.1.7 0-8.1 8.1-3.1 24.5-20.4 28.6-30.3-13.9-29.2-18.3-.8-.7 4.5-7 6.1-9.1 1.9-16 15.1-37.7 28.5-50.8 22.7-4-1.8-6.3-5-7-9.2-50.2 51.6-58 22.7-46.3-.1 5.6-11 .8-15.8-3.3-20.7l-24.3 23.6c-15.8 12.7-30.9 8.3-26-16-4.9 4.1-36.8 30.6-38.4 14-.6-6 4-13.3 5.3-18.5-13 11.3-9.5 24-19 22.7-9.9-1.4 1.9-16.8 1.9-29.3 0-.8.4-1.2.2-1.2-6.8 0-17.9 30-21.5 31.5-3.5 1.5-7.7-.4-7.1-4.2l9.8-31.5c-13.4 8.8-32.2 36-44.7 36-6 0-8.8-6.5-7.5-14.6-22.3 33.2-35 16.6-22.5-7.4 5-9.7 16.8-23.7 26.8-13.9 4.4-7.4 12.2-1.9 10.3 3.5-2.8 8-7 15.3-5 24.8C920 169.7 954 121 968 126c5.4 2 3 9 1.8 12.5 10.4-13.4 19.7-9.7 18.2 8 4.1-5.6 10.6-11.6 15.9-5.1 4.9 6-3.4 17.3-2.8 21.7 10.2-6 28.3-18.6 32.4-24.4.8-1.3 2.7-12.6 10.3-7.5 6.4 4.2-5.7 15.6-5.7 31.7 0 16.7 38.2-25.6 38.2-25.6-4-9.6 6.4-19.5 12.5-12.7 4.8 5.5-6.6 10-.6 16.7 14.7 16.5-3.4 37 1.1 43.1 4 5.6 39.8-29.4 44.3-36.1 5.9-11.6 14.2-17.3 20.6-18.8 19.4-4.5 12.4 23-16.4 27.6-6 25.4 44.2-7.2 52.1-19.2 22-33.3 66.2-17.3 25.3 21.2 7.7-1 17-.6 23.6 3.9 12-9.7 33.7-24.4 46.8-26.6 4.6-.7 6.2 6.1 1.2 7.2-13 2.7-31.2 15.3-43 24.9 15.6 26.8-42.7 96.8-70.5 96.8zm1-7.5c21.6 0 71-61.4 62.4-83.7-19.5 16.3-55.8 52.1-64.6 75.4-1.7 4.4-2.5 8.3 2.1 8.3zM158.8 192.9c14.6 0 31.3-15.3 39-26.3a119 119 0 0 0 15.2-30.2c-65.3 1.7-79.4 56.5-54.2 56.5zm157-12.7c-6.9 0-5-13.3 1.5-13.3 6.4 0 6.3 13.3-1.5 13.3zm182.7 24.5c-13 0-14.2-30.7-14.2-37.2 0-11.6 1-24.4 3-38.3l-35.3 2.5c-11.8 16.4-46.5 65.2-53 70.3-2.4 2-6.5-3.2-4.8-5.4 8.8-10.8 21.6-33.2 9-46-11.4-11.3-21-9-23.6-11.6-2.3-2.3.5-5.1 2.1-5.2l65.8-8 62-88.5c4.4-4.4 7 1.7 6 4-8.8 20-15.9 59.1-19 81 9.4 1 15.2 4.4 18.6 7.9 3.7-13.4 16.2-7 13.6-.8-2 4.8-5.3 7.4-1.3 11.8 14.7 16.5-3.5 37 1 43.1 4.5 6 46.8-35.9 51-44.7 1-2.2 3-13.6 10.6-8.5 6.4 4.2-5.7 15.6-5.7 31.7 0 16.3 35.2-22.7 35.8-23.3 17.2-19 31.7-9.7 22.9 3.2a37.3 37.3 0 0 1-24.6 14.3c-6.4 26.5 48-10.4 51.6-18.5l.4-1.8c7-28 20.4-60.3 25.6-68.6 4.4-7.1 14.1-2.5 9 5-8.3 12.2-48 114.1-21.8 102 13-6.2 27-26.6 35.5-37.7 2.3-3 8.4-.3 6.1 3.7-4.7 8.4-35 48.8-51.5 42-9.7-3.9-7.7-21.7-6-31.8-11.6 10.3-27.6 23-42.4 23-11.1 0-15.8-6.4-14.4-15.6-7 6.7-17.4 17.9-28 14.4-6.5-2.2-7.6-9.8-7.2-15.9-5 5.6-48.2 51-56.2 30.4-2.7-6.9 1.2-19 3.6-23.8 6.4-12.5-.4-16.8-5-22.8-6 2.8-.2-10-22.1-11.8-9.6 74.8 10 62.7 10 70.6 0 3.7-3.9 5-7 5zM415.3 170l27-36.8-41 5.9a31.7 31.7 0 0 1 14 31zm42.1-46 31-2.1c3.4-21.2 7.6-41.6 13-60.3l-44 62.4zm133.3 2.4c-8.3 0 1.4-19.9 6.8-11.9 3 4.5-2.3 11.9-6.8 11.9zm32 21.5c5.6-2.6 13.9-8.2 15.6-12-5-.2-12.1 7.4-15.6 12zm16-12zM784 204.2c-2.8-.2-4.7-2.6-4-5l17.2-64.4c-13.5-11-8.6-26.5 5.4-18 2.7-9 17.5-58.4 22-67.6 4.1-8.5 22-2.3 8.5 10.4-6.3 6-13.3 31.1-17.2 43 12.7-23.6 41-70 71.2-55.7 8 3.8 11.5 13.4 11.3 22.6-.6 34.1-42 77-75.4 74.3 11.3 21 30.2 52 57.5 52 2.9 0 6.9-9.7 11.7-4 10.3 12.3-35.6 23.9-61.3-19.3l-16.7-30-7.9-2.4a301.3 301.3 0 0 0-14.8 49.7c-2.7 11.4-2.9 14.7-7.5 14.4zm16-78.7.6-2c-1.1-1-2-1.4-2.7-1.6.2.9.9 2.1 2 3.6zm24.5 11c43-2.4 82.1-69 59.9-82.9-11.2-7-30 4.8-42.5 21.7a255.8 255.8 0 0 0-29.6 51l6.5 9.8 5.7.5zm64.1 31.2c4 0 18.4-22.1 19.4-23.8-5.4-7.4-19 16.3-19 23.4 0 .2-.7.4-.4.4zM1039 125c-9.1 0 5.8-16.7 8.6-16.7 4.6 0 6.1 5.2 4 7L1039 125zm108.2 17.2a30 30 0 0 1-2.4 4.4c4.6-2.5 11.5-7.4 13.1-10.8-3.2-.1-7 2.7-10.7 6.4zm11-6.4zM12.4 98.5c-6 0-4-38.1-3.6-43.2-1 1.3-8.7 12.9-8.7 6.9 0-3.5 9-10.6 9.2-11-.1-.2 5.7-60.8 17.4-50 4 3.6-5 12.8-8.8 28.4a236 236 0 0 0-3.7 17.9c16-8.6 29.1 5 14.4 29.5C18 95 10 89.9 13.6 80.1c1.5-4.3 12.2-25.5 12.2-20.7 0 .8-14.3 26.9-9.7 26.9 3.8 0 18.4-23.1 11.7-35.7-2.8-5.2-9.4-2.8-14.2.2-1.4 9.3-4.5 34-1.2 42.5.5 1.4 1.5 5.2-.1 5.2zm27.9 45c-19.8 0-18.9-25.7 18.3-44.7 6-3 12.7-5.4 20.2-7a144 144 0 0 0-5.2-45.3C68 60.3 59 77.2 58 87c-.2 1.5-6.6 10.1-6.6-6 0-7.6 1.6-36.5-8.6-36.5-4.8 0-10.3 9.5-10.3 6.5 0-3.5 23.7-29.4 23.7 16.4l-1 13.5 17.6-37.2s-3.7-7.2 1.6-7.2c9 0 8.7 47.2 8.1 54.6 19.1-3.8 19.9 0 14 .5l-14.4 2.2c-4.2 23-19.3 49.7-42 49.7zm-1.2-3c11.7 0 25.8-13.2 31.1-21.8 4.3-7 7.1-15 8.3-24C36.6 106 19.9 140.4 39 140.4z"/>
</svg>
