<svg xmlns="http://www.w3.org/2000/svg" xml:space="preserve" viewBox="0 0 496.3 465">
  <switch>
    <g>
      <g fill-rule="evenodd" clip-rule="evenodd">
        <path fill="#ABD0D6" d="M26 327.1c-1.1-.7-.4-1.9-.6-2.9-.3-1.2 0-2.9-2.1-2.9v-11.7c1.4.7 2.4.4 3.2-1 1.6-2.7 6-3.9 10.6-2.2l-6.2.1c-2.7.3-5.5 3-5.2 5.8.5 4.2 0 8.4.5 12.5L26 327z"/>
        <path fill="#261556" d="m148 75.4 5-4.4 18.8-17c.9-.8 1.7-1.7 2.5-3l.3 2.2c0 3.1.2 6.3.1 9.5-.3 14.5.2 28.9.3 43.3v2.5c-.1 7 0 13.9-.6 20.8 0 .4 1 2-.9 1.2l-.4-.4-.6-.5h.1l-.5-.6c-1.4-2-3.7-2.8-5.5-4.4-3.7-3.4-7.3-7-11.2-10.2a42.1 42.1 0 0 1-6.2-6.2c-1.2-1.5-1.8-2.4-3.3-.5-.5.5-1.3.9-2 1-1.9 0-1.8 1.1-1.8 2.5v19.4c-.1 3.1-1.1 4.1-4.1 4.4-2 .1-4 .3-6.1.3-1.8 0-3.8-.3-3.3 2.6.1.5-.4 1-.6 1.6-.4.7-1.5 1.2-1 2 .5.7 1.4.3 2.1.3 1.7-.2 2.4.4 2.3 2.1v5.7c-.1 1.3-.7 2.8-1.8 2.9-2.8 0-2.3 1.8-2.3 3.4v66.4l.1 9.6c0 1 0 1.8 1.5 1.8 4.3-.2 8.5-.2 12.8-.2l3-.1 22.2-.2 13.8.2 2.6.1c1.3-.4 3.3 1.3 3.6-1.4 2.1 1.7 3.7 3.9 5.3 6-1 .2-2 .8-3 .8-2.2 0-3 1-3.5 3-.9 3.4-2.6 4.6-6 4.7l-36 .2c-1 0-1.9-.2-2.7-.3-1.8-.3-3.6-1.2-4-2.9-.9-4.3-3.6-5-7.3-4.4H128l-.1.1-.1 2-.4 37c-.2 24.4-.3 49 0 73.4 0 1.7.2 3 2.3 2.6 1.5-.3 1.5 1 1.6 2a14 14 0 0 0 2.4 7l8.8 12.5a241 241 0 0 0 11.8 14.9c.5 1.1 1.3 1.9 2.6 1.8 1.7 2 3.2 4 4.6 6 2.8 4 5.7 7.9 9.6 11 0 3.2-2.7 2.1-4.3 2.7-.4-1.6-1.8-2.2-3-3-5.1-3.8-8.9-8.8-12.8-13.7-.3-.6-.8-.5-1.4-.4-6.6-10.5-15.4-19.3-21.8-30 0 8.9-.3 17.5-.3 26.1-.3 6.8-.7 13.6-.7 20.4l-.4.3c-1 0-1.8.4-2.7.1.1-1.2-.5-2.2-1-3.2a14 14 0 0 1-1.6-10.1 43 43 0 0 0 1-12.4l-.1-19.9c0-.6.3-1.4-.5-1.7-.8-.3-1.1.5-1.5 1a286 286 0 0 1-9.3 12.4c-1.6 2-2.6 4-1.5 6.7.2.4 0 1 0 1.4l.4 30.1.1 12c.1 2.8 1.7 4.3 4.4 4.7 1.1.2 2.3.1 3.4.1 15.5 0 31-.8 46.4 0 .8.1 1.8.5 2.2-.5.3-1 0-2-.6-2.8-3-4.2-6-8.4-9.1-12.4-2.9-3.5-5.5-7-6.8-11.5v-2l.8 1c2 3.3 4 6.6 8 8l3.1 2.2a46 46 0 0 1 8.6 15.5c.6 1.7 1.5 2.2 3.2 2.2h17.4c0 1.3.6 1.6 1.7 1.5h4.2c2 0 2.5-.8 1.5-2.7-.4-.8-1-1.5-2-1.8 1.9-2 4.5-2 6.7-3l.7-.3 4.8-3.1c-1.1-.7-2.1-.3-2.8-1l.3-1.6v-.3l.3-.5c3.6-.6 3.8-2.6 2.2-5.4v-.7c0-1.7 4.3-1.7 1.9-4.4.2-.2.4-.5.7-.6l2.3-.4c-3.6-.7-2.8-2.9-2.2-5l2.3.5c.6.2 1.1 0 1-.6-.6-1.8.7-3.9-.7-5.6v-3.1c0-1.3.2-2.8-1.4-3.5-1.6-.6-2 .7-2.6 1.6a14.9 14.9 0 0 0-2.2 8.1c0 3-.2 5.9-1.5 8.6 0-3.8 0-7.6.2-11.4.1-.1.2-.3 0-.5l-.3.3-1.4.5c2.5-2.2 2.7-5.9 5.4-8.3-.7 0-1.1-.3-1.3-.1l-9.9 8.5-.3.4c-.3.5-.4 1 0 1.5.5.4 1 .2 1.4 0l3.2-1c-.7 1.5-2.3 2.1-3.7 2.4-1.6.4-2.4-.7-2-2.4.5-2.6 2.3-4.2 4.3-5.6 1-.8 2.5-1.2 3.3-2.4 1.4-.5 2.8-1 2.7-3v.1c1.6.7 3.3 1.1 5 1.5.5-10.8.8-21.5.6-32.2-.5-33.2 0-66.4-.2-99.5 0-2.6.2-5-.1-7.6-.8-4.8-5.4-10.2-9.3-10.8 1.9-1.8 3.7-3.5 5.9-4.8 7.2 5 9.4 12.2 9 20.6-.2 7 0 14.2.1 21.3 0 1.2-.3 2.5 1.7 2.3 1 0 .8.9.8 1.5l-.2 25.5c0 .7 0 1.8-.8 1.8-2.5 0-1.7 1.8-1.7 3l.2 7.6v44.6c0 2.7-.1 5.4.5 8l-2 10.3c1.2-1.4 2.3-1.3 3.5-1.4l13.7.2c-1.2 7.1-2.4 14.2 3.2 20.4 1.6 1.9 2.8 4.4 2.7 7.1l-5.2 3.2c-1.3.8-2.1 1.9-2 3.6.2 2 0 4 .1 6 .3 9.5.4 18.8 0 28.2-3 .2-3 .2-3-2.9v-17c0-1.5-.5-2.7-1.6-3.6-.5-1.7-.5-4.2-2.2-4.5-1.9-.2-2.3 2.2-3 3.7l-.7 1c-2.1 2-3.3 4.5-4.5 7-1 2.3-2.6 3.7-5 3.6-5.1-.2-10.1.5-15.1-.8a19 19 0 0 0-6.3-.1c-.7 0-1.3.1-1.1 1.1.5 3 .1 6.2.4 9.2-5.1 0-10.3-.2-15.4.3-1 .1-1.9.1-2.6 1-.8.8-1.7.2-2.6 0-2.1-.7-4.3-1.4-6.6-1.3-10.2-.2-20.3-.2-30.5 0-3.4.1-6.8 0-10.2.3-11.7 1.3-18.9-8.4-19-17.8l.2-18.4c.3-7.4-.3-14.9-1.1-22.5l-13.7 17.6-15.6 19.8L55.3 448c-.9 1.2-2 2.2-3.6 2.2l-.8-.3c-3-1.7-3-2.4-.7-5l12.4-15.4c5.2-6.5 10.6-12.9 15.5-19.6 3.1-4.1 6.7-8 9.4-12.4 4.5-4.9 8-10.5 12.2-15.5a17 17 0 0 0 4.1-12c-.2-17.1 0-34.2 0-51.3 0-1.3.2-2.7-2-2.3-.9.1-.9-.9-.9-1.5l-.1-14.2c0-1 .4-1.5 1.4-1.5.7 0 1.5.1 1.5-.8v-6.6c0-.5-.3-1-.8-.8-2.4.8-1.9-1-1.9-2.2v-12.5c0-1 0-2.2 1.6-2.1 1.6 0 1.2-1.3 1.2-2.2 0-6.5 0-13-.2-19.6-.1-5.2 1.6-9.8 5-13.5 2.8-3.1 6.8-4.4 10.9-4.7 2.1-.2 2.7-.8 2.6-3-1-20-.5-40.1-.6-60.2 0-5.4 0-10.8.3-16.2 0-1.9-.7-2.6-2.4-2.2-2 .3-2.7-.5-2.6-2.4l-.1-3.2c-.2-4-.2-4 3.8-4.7 1.2-.2 1.8-.7 1-2-.5-1-1.2-2-1-3.2.5-2.4-1-2.2-2.5-2.2-2.5.1-5 .2-7.6.1-3 0-4-1-4.3-4.1-.6-6.5-.4-13-.4-19.6 0-2.2-.4-3.1-2.8-2.9-1.9.3-4 0-5.8.2-3.8.5-5.6-1.8-7-4.6-.3-.8-.7-1.7-.7-2.6-.7-6.6-1.1-13.2-.7-19.8.2-3.2 2.5-5.6 5-7.4 1.2 2.1 2.8 4.1 3.3 6.4.5 2 1.4 2.3 3 2.2 4.5 0 9-.2 13.7 0 11.3.3 22.6-.4 34 .2 1.8.1 1.9-.7 1.5-2l-1.2-5.6zm-38.8 250v3.5c.6 13.6-.1 27 0 41.2 1.5-2 2.5-3.6 3.7-5 2.3-2.7 4.6-5.3 4.7-9.1 0-1 .7-1.8 2-1.9 2 0 2-1.4 2-3 .5-31.6.1-63.1.3-94.7v-16.7c-1.5 1.2-3 .2-4.5.9a12.9 12.9 0 0 0-8.2 12.6v72.3zM124 108.7v.1h-9.9c-1.5 0-1.9.5-1.9 2 0 5.5 0 11-.2 16.6 0 1.6.7 1.8 2 1.7 6.4-.2 12.8-.5 19.3 0 1.1.1 1.6-.1 1.8-1.5.6-5.7.2-11.4.5-17.1 0-1.7-.7-1.9-2-1.8H124zM213.4 388c1.4 0 2.6.2 3.7 0 1-.1 2.9.1 2.9-1 0-1.6-1.7-.4-2.5-.8h-.2c-2-1.2-3-.2-3.9 1.8zm1.1 2.4c2-.2 3.6 1 5.5.6-1.7-1.1-3.5-1.8-5.5-.6z"/>
        <path fill="#F75084" d="M320.5 65.2c1.6 3.7 3.7 7.2 4.5 11.2.8 4.6 1.6 9.2-.6 13.6-.3.7-.4 1.3.1 1.8l6.7 7.2c.5.5 1.1.9 2 .6 0 1.3.3 2.7-.2 4l-5.5 16.2c-1-.2-1.7-1-2.4-1.6-3.2-2.6-5.8-5.9-9.2-8.2-.6-.5-1.1-1.3-2-.8-1 .5-.7 1.5-.7 2.3.1 1-.1 2-.3 3.1-2.6 13.1-7.5 25.7-9.9 39-.2 1.3-1 1.8-2.3 2l-8.7 1.5c-1.3 0-2.6 0-3.8-.3a23 23 0 0 0-12.9 2.4c-3.4-3-4.6-3-8.7-1-1.3.6-2.6 1-2.7-1.2 0-.6-.3-1.2-.4-1.9-1.2-9.6-4-18.8-9.3-27-2.6-4-2.6-8.2-1-12.6 1.4-4.2 3.8-8 4.8-12.3 1-5 3.6-9.2 5.6-13.7l3.1-.8-1.7 4.9a35.5 35.5 0 0 0-2.7 12c0 3.4 1.1 5.1 4.3 6 5.9 1.7 11.5.4 16.4-2.7 6-3.8 10.7-9 14.6-14.9 1.2-1.8 1-2.6-1.2-3l-1.2-.2a35 35 0 0 1-12.7-3.3c-2.6-1.2-5.3-2.7-5.2-6.4 0-.5-.2-1-.3-1.4.3-.8-.8-2.7 1.1-2 1.7.5 2.9.1 4.1-.6 3.9-2.2 6.7-5.3 9.1-9 1.6-2.4 1.7-2.3 2.8.2.5 1.6 1 3.1 1.3 4.7 1.5 6.6 6.4 9.3 12.5 9.8 3.9.3 7.3 1.1 10.5 3.3.4.3 1 .9 1.5.5.7-.5.3-1.2.1-1.8-1.4-4.4-3-8.6-5.8-12.3a175.4 175.4 0 0 0-18-20l-.7-.5-.5-1c-3-4.8-6-9.6-7.9-15-.7-2.1-1.6-4.1-2.6-6-1.1-2.4-4.1-3-5.9-1.3 2.5 0 4.4 1 5.5 3.2l2.2 5.7c.3 1 0 1.5-1 1.7-2 .3-3.8 1.1-5.5 2-.5.3-1 .8-.7 1.4.4.9 1 .1 1.4-.1 1.8-.9 3.6-1.4 5.6-1.8 1.2-.2 2 .4 2 1.6-.1 1.3-1.2.4-1.8.3-1.8-.1-3.4.4-4.7 1.7-.3.3-.8.8-.6 1.5.2.5.9.6 1.4.7 2.1.2 4.1 0 5.9-1.3 1-.8 1.5-.5 1.8.7l-.7.7c2.3 3 3.5 6.4 2.8 10-1 4.8-3.6 8.9-7.9 11.6-2.7 1.8-7.5 1.7-9.9-.5a27.5 27.5 0 0 1-10.1-19.4c-.2-4.6 2-6.3 6.6-5 .6.1 1.2.4 1.9.7-1.9-2.8-4.8-3.2-8.9-1.1-.3-.7-.4-1.4-.1-2 2-5.5 4.4-10.7 10.8-12.2 1-.2 1.2-.8 1-1.6-.3-.9-.9-1-1.6-.7l-2.3.8c-5.1 2.2-7.7 6.8-10.4 11.3l-1.6 2.1c-1-1.7-.6-3.4 0-5 1.6-3.8 3.3-7.5 6.2-10.5.7-.7 1.4-1.7 1.7-2.6.4-1.5 1.4-2.3 2.6-3a9.4 9.4 0 0 1 5.7-1.8c.7 0 2.2.2 1-1.4 9.5-1.7 16.5 2 21.3 10.3L319.6 64l.9 1.2zm-52.2-16c1.5-.4 3.4 0 4.4-1.6.5-.9-2.2-2.5-4-2.5-1.4 0-2.9.2-3 2 0 1.7 1.1 2 2.6 2z"/>
        <path fill="#261556" d="M374 61.7h-11.9c-1.4 0-1.8-.4-1.7-1.8.1-4 0-4 4-4 2.6 0 5.2-.2 7.7 0 2 .2 2.7-.7 3-2.5l2.5-13.2c.3-1.9.8-2.7 3-2.6 4.3.2 4.3 0 3.4 4.3l-2.3 13c-.3 1.2.1 1.7 1.2 1.4 3.7-1 7.4-.4 11.1-.5 1.4 0 2-.4 2.3-1.8.7-4.7 1.6-9.3 2.5-14 .1-.7 0-2 1-2.1 1.8-.3 3.5-.5 5.2 0 .6.1.2.8 0 1.3-.6 5-1.1 9.9-2.4 14.7-.5 1.6-.1 2 1.6 2 2.8-.2 5.7 0 8.6 0 1.5 0 2.2.4 1.6 2v1c-.3 3.2-.7 3.4-3.9 3.2-2.8-.2-5.7 0-8.5 0-1.1 0-1.1.8-1.3 1.4-.6 3.2-1 6.5-1.8 9.6-.4 1.6.3 1.7 1.4 1.6 3.4-.4 6.7.3 10 .2 1.6 0 1.7 1 1.8 2 0 .8-.3 1.7-.5 2.5 0 1-.5 1.4-1.5 1.3-3.7-.6-7.4-.2-11-.3-2.6 0-2.2 2.5-2.3 3.6-.3 3.8-1.3 7.4-2.1 11-.5 2-4.4 3.4-6 2.1-.9-.7-.4-1.8-.2-2.7a150 150 0 0 1 2.2-11.3c.4-1.7.3-2.6-2-2.5-3.2.2-6.5.1-9.7 0-1.4 0-2 .3-2.2 1.9-.4 4.3-1.4 8.7-2.8 12.9-.7 2-4.6 3-6.2 1.3-.6-.5-.3-1-.2-1.5l2.5-11.5c.5-2.7.4-2.9-2.4-2.9-2.2 0-4.4 0-6.6.2-1.4 0-1.9-.3-1.9-1.7 0-4.3-.2-4.3 4-4.4h6.3c1.6.2 2.3-.5 2.5-2l2-11.2zm20.9-.2c-4.6 0-9.1-.2-13.7.6-.7.1-1 0-1.1 1a46 46 0 0 1-1.9 9.8c-.4 1.6 0 2 1.6 2 3.7-.1 7.4-.2 11 0 1.4 0 1.8-.5 2-1.8l2.1-11.6z"/>
        <path fill="#F7F5D9" d="M276.9 16.4c1.2 1.6-.3 1.4-1 1.4-2.2-.1-4 .6-5.7 1.7-1.2.8-2.2 1.6-2.6 3-.3 1-1 2-1.7 2.7a31 31 0 0 0-6.2 10.5c-.6 1.6-1 3.3 0 5-5 9.6-10.8 18.8-16.5 28a43.2 43.2 0 0 0-6 32.4l-.5.5c-1.8-3.5-1.4-7.4-1.6-11.1a39 39 0 0 1 3.2-15.9c1-2.3 2.3-4.5 3-7.5-2.3 1.7-3 3.7-4.2 5.4-3 3.4-3.7 7.7-4.8 11.8a33 33 0 0 0 .2 15.4c-4.1-5.6-1.8-21.5 4-30 5-6.2 10.5-12 13.3-19.8a570 570 0 0 1 7-18.8c2.6-6.6 6.3-12.3 13.8-14.4a14 14 0 0 1 6.3-.3z"/>
        <path fill="#F75084" d="M374.2 335.8a95 95 0 0 1 16 0v1c-.1 3 .7 5.8-1.9 8.4-1.5 1.5-.2 4.9 1.7 6 1.9 1 4.6 0 6-2.4 1.3-2.2 1-4-1.3-5.3-1.3-.7-1.6-1.5-1.5-2.7l.4-5.4c3.3.7 6.6.4 9.9 0 1.2.3 2.4.4 3.5-.2.8.7 1.8.6 2.8.6 4 0 7.9.2 11.8.3v4.4c.1 1.6.1 2.8-2 3.4-2.2.6-2 2.9-1.8 4.8a3.2 3.2 0 0 0 2.9 2.8c1.7.2 3.4-.3 4.5-1.9 1-1.5 1.9-3.3.7-5-2-3-.9-6-.5-9.1 2.6.7 5.3.3 8 .4 1.3 0 2.8.3 3.9-.8 1.1.7 2.3.7 3.4.1 1.7.7 3.6 0 5.3.5-.1 4.4 0 8.8-.4 13.2-.8 6.3 0 12.7-.8 19.1-.5 4.3.4 8.7 0 13-.4 3.5-.3 7-.5 10.5l-.5 15.3c-.1 3.7 0 7.5-.4 11.2l-.8 13c-.2 4-.3 8.3 0 12.4 0 2 0 4-1 5.7l-3.3-.1h-71c-1.1 0-2.4.5-3.2-.8 1.3-4.2 2-8.5 2.4-12.9 1.2-12.5 2-25.2 3-37.8 1.6-18.3 2.4-36.7 3.6-55 .2-2.2.1-4.6 1-6.7zM435.3 135h1c6 .6 12 .6 17.9.5l12.4-.3c5.6 0 7.9 2.4 7.9 8v24.4c0 6-3.7 9.7-9.8 9.7h-28.4c-1.4-.3-2.4.1-3.2 1.2-3 3.8-6.5 7.2-8.7 11.4-.9 1.7-1.4 1.3-2.2 0-2.1-3.7-4.4-7.3-6.6-11-.7-1.2-1.7-1.7-3.2-1.6H403c-5-.3-7.6-2.4-8.7-7.3.8-.8.5-1.8.5-2.8v-25c0-3 1.8-4.6 4-6 1-.5 2-.3 2.7-1.1h2.7c10.2.5 20.4.6 30.6.4.2 0 .4-.3.6-.4zm-8.3 16.8a5.8 5.8 0 0 0-3.5-5.8 5 5 0 0 0-6.1 1.7c-1.7 2.3-2.5 1.6-4 0-2-2.2-4.2-2.5-6.7-1.2-2.2 1.2-3.2 3.2-2.8 6 .2 2.2 1.3 4 2.9 5.5l7 6.7c1.2 1 2 .8 3 0 3-2.6 5.9-5 8.2-8.1a8 8 0 0 0 2-4.8zm29.8-6c-4.5 0-7.2 4-5.3 8 .2.4.3.9.6 1.3.6.9.7 1.6-.3 2.5-1.4 1.3-1.2 3-.3 4.4 2 3.4 6.3 4 9.2 1.4 2.4-2.2 2.7-4 1-7.5-.5-1-.6-1.6 0-2.6 1.8-3.9-.6-7.6-5-7.6zm-12.5 9.6h-.1v-7.6c0-.6.3-1.4-.5-1.8-.7-.2-1.2.2-1.7.7-1 .8-1.7 1.9-3.1 2.2-.9.1-1 1.2-.7 2 .5 1.1 1.3.7 2 0 1.3-1 1.6-.4 1.6 1l.4 10.6c0 .9-.6 2.3 1 2.4 1.7 0 1-1.6 1-2.5v-7z"/>
        <path fill="#261556" d="M460 359.3c.2 8.3 1.3 16.5 2 24.7l.8 7.3c0 .8-.1 1.7.8 2.2-.6 1.2-.3 2.5-.2 3.7.4 3.8.9 7.6 1 11.4.2 3 0 5.9.9 8.7.2 10.5 2 20.8 2.7 31.1l-.6.8-21.7.2c-1.4-.3-2.8.2-4.2-.3 1-1.8 1.1-3.8 1-5.7-.2-4.1 0-8.3.1-12.4l.8-13c.3-3.7.3-7.5.4-11.2l.5-15.3c.2-3.5.1-7 .5-10.5.4-4.3-.5-8.7 0-13 .9-6.4 0-12.8.8-19.1.5-4.4.3-8.8.4-13.2 3.5 0 7 0 10.5-.2 1.4 0 1.8.4 1.8 1.8 0 7.4 1.4 14.7 1.6 22zM26 327.1l.2-2.3c.2.5.5 1 .5 1.6.4 2.9 1.8 3.9 4.1 2.3 2.2-1.4 4.2-1.2 6.5-1 1.5.1 2 .6 2.1 2.2 0 1.8-.4 3.8 1.2 5.3l.3 1v.1c1 4.8 4.1 8.2 7.8 11.2a21.1 21.1 0 0 0 32.8-8.1c1.5-4 2-8 1-12.4a20 20 0 0 0-14.1-15 26.8 26.8 0 0 0-15.6 0c0-.7.5-.9 1-1 1-.3 1.5-1.1 1.2-2-.7-2-1.3-4-2.9-5.7-1.3-1.4-2.2-1.3-3.2.3-.9 1.2-1.5 2.7-3.2 3.1l.2-.5c.4 0 .4-.2.5-.5.8-1.2 1.8-2.3 2.5-3.6 1.7-3.4 4.7-4.2 8.2-4 4.2 0 8.4.7 12.7-.1.5 0 1 0 1.3.4 1.9 2.2 4.3 3.9 5.7 6.5.8 1.6 2 2 3.7 1.8 1.3-.2 2.7-.2 4.1-.3 5.7-.6 8.2 1.7 8.2 7.4l-.2 23.6v12c-.1 4.4-2.5 6.7-6.9 6.8-14.6.5-29.2.2-43.9 0H31.6c-3.5-.2-5.2-2.1-5.3-5.7 0-2.5.2-5-.3-7.5v-15.9zm59.4-11.7c3 0 3.5-.5 3.2-2.8-.2-1.1-.9-1.6-1.9-1.4-1.8.4-3.8-.4-5.5 1v1c.5 2.6 2.7 2 4.2 2.2zm201.1 104.8.7-1.7h.9l.3.2-.2-.3c0-.5 0-1 .8-.8l2.6.7c.8.1 1.6 0 1.9-.8.3-1-.6-1.4-1.3-1.7-.7-.2-1.4-.3-2-.6-1.3-.5-1.9-1.3-1.5-2.6v.1l5.6-.2c.5 0 1.1 0 1-.7 0-.4-.4-.6-.8-.7a14 14 0 0 0-5-.5c-.4-.5-.3-1 0-1.6 2.3 0 4.6-.7 6.8-1.4.7-.2 1.4-.5 1-1.4-.3-.7-.9-.3-1.4-.1a13 13 0 0 1-5.3.6c0-1.8.5-3.4 1.1-5 1.4.1 2.7.5 4 1.1-.5-2.5 1.2-4.1 3.8-3.9-.4-.8-.6-1.6-1.6-2-.4-2-1.8-3.7-2.8-5.5-.4-.7-.7-1.8-1.7-1.1-.8.5-.2 1.4.2 2.1 1 2 3.1 2.8 4.3 4.5.6 1.3-.2 1.7-1.2 1.8l-4.5.4.6-6.3c0-.8.3-1.8-.5-2-1-.2-1.4.8-1.6 1.5-2 7-5.8 13.3-7.4 20.5-.2 1.1-.4 2.3-1.6 3.1.4-3.5 1.3-6.8 2.6-10 .7-.8 1-1.6 1-2.6.9-.8 1-1.8 1-3l3.5-8.2c.3-.3.5-.7.2-1-.3-.2-.6 0-.7.3-2.3 2-4 4.6-6.4 6.5-1 .7-2 1.2-3.2 1.6-1.2.4-2.2-.3-3-1.1-1-1-.7-2 0-3 1.6-2.2 3-4.6 4.4-7 2.1-3.4 7.8-4.7 10.6-1.7.5.6 1.2.9 1.8 1.3 2.5.4 4.7-.2 6.8-1.8-1.8-1.2-3.5-.2-5.2-.2-.3-1.9.3-3.6 1-5.2l1.5-.3c4.7-.6 9.5.1 14.3-.4l-.6 12.7c0 1.5.4 2.8 1.3 4 1.9 2.8 3.4 5.8 4.5 9 .5 1.1.7 2.3.4 3.5-2.2 1.6-4.4 3.4-4.7 6.2-.5 3.8-.4 7.8-.5 11.7l-.2 21.5c-1.8-.1-3.7.7-5.5 0 .7-8.1.6-16.2.2-24.3 0-.4.1-1-.6-1s-.8.4-1 .8c-1.9 4.4-4 8.6-5 13.2-.3-1.3-1.3-1-2.2-.9-2.5.5-5.2.4-7.8.6-4.2.5-8.4-.6-12.6-.7-2 0-3.7 1-5.6.5.3-1.3 1.3-.8 2-.8h7.8c1.4 0 1.6-.6 1.2-1.8a4.5 4.5 0 0 0-4.7-3.1c1.3-1.7 3-2.4 5-3l3.9.9c.6 0 1.4.2 1.6-.7.2-.8-.4-1.2-1.1-1.6-1.5-.8-2.9 0-4.3.3.6-1 .6-2.1 1.5-2.8l7.5-1.2c-1.4-1.5-2.7-1.1-4-1.3-1-.1-2.3.1-1.9-1.6zm2.2-29.7c.4-.2.8-.4.9-1l.1-.4c.5-.5 1.7-.3 1.8-1.1 0-1-1.1-1-1.7-1.5a4 4 0 0 0-3-.5c-4.5.6-5.5 4.2-7 7.4v.5c-.4.3-.8.6-1 1-.8 1-1.8 2.1-.7 3.2 1 1 2.2.1 3-.6 2.6-2.2 5.6-4 7.6-7zm14.6-1.7v-.4l-5.4.2v.2h5.4zm-3.9 3.5c-.4-1.7-1.1-2.6-3.3-2.6l3.3 2.6zM407 335.2c-1.1.6-2.3.5-3.5.2.3-4.5.5-9.1 1-13.6.7-7 1.4-14 6.1-19.8.6-.7.6-1-.3-1.5-2.5-1.3-4.5-.4-6.3 1.1-4 3.5-6.6 8-7.9 13a83 83 0 0 0-2.5 20.8l-.4 5.4c-.1 1.2.2 2 1.5 2.7 2.3 1.2 2.6 3.1 1.3 5.3-1.4 2.4-4.1 3.4-6 2.3-2-1-3.2-4.4-1.7-5.9 2.6-2.6 1.8-5.5 1.8-8.4v-1c.5-8.6 1-17.3 4-25.6 2.1-5.4 5.2-10.6 10.9-12.5 5-1.7 10.4-2.3 15.7-2 5.3.2 8.7 4.1 11.7 8.3l3.4 5.3c3.7 8.3 4.4 17 5 26-1.2.5-2.4.5-3.5-.2-.4-6-.3-12-2.3-17.7l-.5-1.4c-1.4-4.6-4-8.6-6.9-12.3a16.7 16.7 0 0 0-6.4-5.1c-2-1-3 .5-4.3 1.4-.7.5 0 1 .3 1.4 4.9 6 6.7 13.1 7.4 20.7.4 4 0 7.8 1 11.7v1l-.2.7c-.4 3-1.5 6 .5 9 1.2 1.7.3 3.6-.7 5.1a4.6 4.6 0 0 1-4.5 1.9 3.2 3.2 0 0 1-3-2.8c-.2-2-.3-4.2 2-4.8 2-.6 2-1.8 2-3.4-.2-1.5 0-3-.1-4.4.4-5.7-.2-11.3-.7-17 0-.9.4-2.3-1.2-2.8.1-4.5-1.9-8.4-4-12.2-.7-1.4-1.7-2.2-3-.4l-.3.4-.3.5-.4 1c-.4.2-.4.6-.5 1-.4.2-.4.6-.4 1l-.1.3-.5 1v.1c-.4.2-.4.6-.4 1l-.1.4c-.4.2-.4.6-.4 1a79.4 79.4 0 0 0-2.3 23.8z"/>
        <path fill="#F75084" d="M190.8 445.5c-.3-3 .1-6.1-.4-9.2-.2-1 .4-1 1-1.1 2.2-.2 4.3-.4 6.4.1 5 1.3 10 .6 15 .8 2.5 0 4-1.3 5-3.5 1.3-2.6 2.5-5.2 4.6-7.2-3.4 6.6-4.1 13.7-4.9 20.9-.2 1.9-1.1 2.5-2.8 2.5-6.6 0-13.2.9-19.8.7-4-.2-4-.1-4.1-4zm81.2-8.6c2 .6 3.7-.5 5.6-.5 4.2 0 8.4 1.2 12.6.7 2.6-.2 5.3 0 7.8-.6.9-.2 1.9-.4 2.1 1l-.8 9.4c0 1.4-.7 2-2.1 2l-24 .2c-1 0-1.8-.2-1.7-1.4 0-3.6-.4-7.2 0-10.8h.5z"/>
        <path fill="#42CAE3" d="M248.4 447.9c6.5-.6 13 .4 19.5 0 .7 0 1.6 0 2.2.4.9.6 1.7 1.7 1.6 2.8-.1 1-1.5 1-2.4 1-5.2.3-10.3.4-15.4.5-17 .2-33.9.1-50.8 0-3.6 0-7.2-.2-10.8-.4-2.4-.1-3.7-1.9-3.1-5.3 1.1 4.2 4 3.4 6.5 3.4 10.1.3 20.1-2 30.2-1.4 5 .3 10 .7 15 .4 2.3-.1 4.8.2 7-1l.5-.5z"/>
        <path fill="#F75084" d="m240 407.8.4 17.5a41 41 0 0 0 .2 9.6c-1 2.2-.7 4.5-.1 6.8-.6 1.8-.3 3.7-.3 5.5 0 1.3-.5 1.8-1.7 1.7l-5.6-.1c.4-9.4.3-18.7 0-28.1l-.1-6.1c-.1-1.7.7-2.8 2-3.6l5.2-3.2z"/>
        <path fill="#4B7FE1" d="M335.8 452.4c-1.5.4-3 .2-4.6.2l-11.7-.3c-.7-1.5-2.2-.9-3.4-1-.7 0-1.6 0-1.7-1-.1-1.1.9-.9 1.5-1 .6 0 1.1-.2 1.7-.3l.6-.7c.9 0 1.7-.3 2.6-.3l41 .1c-.2.5-.2 1.1-.5 1.4-.7.6-2.5.2-2.1 1.7.3 1.3 2 .3 3 .8l.4.2h-19.4c-2.2 0-4.3.8-6.5.2-.3-.5-.6-.5-.9 0z"/>
        <path fill="#42CAE3" d="m362.6 452.2-.4-.2c-1-.5-2.7.5-3-.8-.4-1.5 1.4-1.1 2.1-1.7.3-.3.3-1 .4-1.4.7-.1 1.4 0 1.7.7.6 1.1 1.7 1.1 2.7 1.1a729 729 0 0 1 34 .4c6.1.2 12.3-.8 18.5-.3l-.5 2-1.9.3c-13.5.1-27 .4-40.5.3-4.3 0-8.7.8-13-.4zm-45-3.2-1.7.3c-.6.1-1.6-.1-1.5 1 .1 1 1 1 1.7 1 1.2.1 2.7-.5 3.4 1-1.8.7-3.7.3-5.5.3h-21.8c-.7 0-1.8.3-2-.9 0-1 .8-1.7 1.7-1.8 5-.2 9.7-2.1 14.7-1.3 1.8.8 3.7 0 5.5.1l5.5.3z"/>
        <path fill="#4B7FE1" d="m467.4 449.2.6-.8c8.7 0 17.4-.3 26 0 .8 0 2.2-.7 2.3 1 0 1.6-.9 2-2.2 2-7-.2-13.8.3-20.7.6a1930.7 1930.7 0 0 0-4.4 0c-1.2-.6-2.2-1.3-1.6-2.8z"/>
        <path fill="#42CAE3" d="M467.4 449.2c-.6 1.5.4 2.2 1.5 2.8l-29.7.2h-1.4c-.6-.7-1.7 0-2.1-1 .4-.6 1.4-.3 1.6-1.2 2.8-.3 5.7.5 8.4-.6l21.7-.2z"/>
        <path fill="#4B7FE1" d="M437.3 450c-.2.9-1.2.6-1.6 1.3.4.8 1.5.2 2 1l-19.6-.2.5-2c4.2-1 8.5-.7 12.8-.7 2 0 4 .4 6 .7z"/>
        <path fill="#F7F5D9" d="M272 436.9h-.4c0-2.7 1-4.4 4-4.9 1-.1 1.8-.5 2.7-.8 2.3 0 3.9 1 4.7 3.1.4 1.2.2 1.8-1.2 1.8H274c-.7 0-1.7-.5-2 .8z"/>
        <path fill="#F75084" d="M283.4 427c1.4-.1 2.8-1 4.3-.2.7.4 1.3.8 1.1 1.6-.2.9-1 .8-1.6.7l-4-.8v-.9l.2-.3z"/>
        <path fill="#4B7FE1" d="M133.1 445.6a517 517 0 0 1 30.5 0l-.5.1h-29.5l-.5-.1z"/>
        <path fill="#42CAE3" d="M335.8 452.4c.3-.5.6-.5.9 0-.3.1-.6.2-.9 0zm136.5-.4c.4-.2.7-.2 1 0h-1z"/>
        <path fill="#4B7FE1" d="M438.8 452.2h.4-.4z"/>
        <path fill="#42CAE3" d="m148 75.4 1.2 5.5c.4 1.4.3 2.2-1.6 2.1-11.3-.6-22.6 0-34-.2-4.5-.2-9 0-13.6 0-1.6 0-2.5-.1-3-2.2-.5-2.3-2.1-4.3-3.3-6.4 2.6-.7 5.3-.8 8-.7 14.3 0 28.6.3 43 .4 1.4 0 2.5.3 3.3 1.5z"/>
        <path fill="#ABD0D6" d="m46 306.2-.3.5a3345.3 3345.3 0 0 0-4.4-.5h4.6z"/>
        <path fill="#ABD0D6" d="M46.4 305.7c0 .3-.1.6-.5.5l.5-.5z"/>
        <path fill="#4B7FE1" d="m41 306.4 4.7.3c1.7-.4 2.3-1.9 3.2-3.1 1-1.6 2-1.7 3.2-.3 1.6 1.6 2.2 3.7 3 5.8.2.8-.3 1.6-1.2 1.8-.6.2-1.1.4-1.1 1.1-.3.7-1 .8-1.5 1.1A19 19 0 0 0 41 325.7c-.7 3.1-.7 6.3-.5 9.5-1.6-1.5-1.1-3.5-1.2-5.3 0-1.6-.6-2-2-2.2-2.4-.2-4.4-.4-6.6 1-2.3 1.6-3.7.6-4-2.3l-.6-1.6c-.5-4.1 0-8.3-.5-12.5-.3-2.7 2.5-5.5 5.2-5.8l6.2-.1 1.6-.1a853.5 853.5 0 0 0 2.3.1zm-4.8 4.7-3.5.3c-.6.1-1.3.2-1.5 1-.2.7.1 1.4.7 2 1 1 6.7 1.1 7.7.1.2-.2.4-.7.4-1 0-3.2-2.4-2-3.8-2.4z"/>
        <path fill="#ABD0D6" d="M39.3 306.3c-.2.3-.4.3-.6 0 .2-.3.4-.3.6 0z"/>
        <path fill="#F75084" d="M311.9 380.1c-4.8.5-9.6-.2-14.3.4v-1c2.5-14.1 4-28.3 4-42.6-.2-10.3-.2-20.6-2.6-30.7-.8-3-2-5.7-2-9 .1-15-2.3-30-3.6-45-.4-3.8 0-7.7-3.6-10.5-1.4-1.2 0-2 1.2-2.2l17.7-2c-1 2.5-.9 2.7 1.7 2.9h7.4c5.7 0 5.6 0 5 5.6-.4 4.4-1.2 8.7-1.1 13.1-1.5 2.6-1.1 5.6-1.4 8.3-1 8.7-2.8 17.2-2.8 26 0 4.4 1.4 8.5 2.4 12.7a86.3 86.3 0 0 1 .1 43.8c-2.6 10-5 20.2-8.1 30.2zm39.2-264.4c.5 1.4 1.6 2.4 2.6 3.5 4 3.9 8.7 7 12 11.6a70.3 70.3 0 0 1 11.6 27v1l.3 1v2.9c0 8.3.7 16.5 0 24.8v.6c-2.8 0-4.9-1-7-2.7-2.8-2.1-6-3.5-9.6-4a53 53 0 0 1-11.3-2.7c-5.1-2-9.8-4.7-14.5-7.5-1.8-1.1-2.5-.7-2.3 1.4 0 1.5.6 3 .8 4.6.2 1.6.5 3.4-1 4.5a10 10 0 0 0-2.4 3l-3.9-7.2c-.5-1-1-1.7-2.2-1.3-2-.2-4 .8-6 .5l-1.3-4 .5-3.6c.8-3.5 1.5-4.2 5-4.5 3.3-.1 6.4.4 9 2.4a5.9 5.9 0 0 0 6.7.6l2.7-1.2a36.4 36.4 0 0 0 17.1-17c-.7 0-.9.5-1 .8-1.5 2-3.3 3.1-6 2.4-1.2-.3-2.7 0-4 .2-3.7.6-7 2.3-10.7 2.7 8.5-3.2 16-8.4 24.6-11.3 1-.3 1.6-1.1 1.5-2.8-11.7 5-23 10.3-34 16 .3-1.3 1.6-2.3 1.8-3.8 1.7-.1 1.8-1.7 2.6-2.7l.9-1.7c2.8-4 5.3-8.3 7.4-12.8.8-1.7 2.4-3 2.6-4.9.6-6.2 4.3-10.9 7.5-15.8z"/>
        <path fill="#261556" d="M324.2 176.2c1.2-.4 1.7.3 2.2 1.3l3.9 7.2c.5 1.7 2.5 3.2.3 5.2-.4.4 0 1.2.4 2a29 29 0 0 0 16.2 12.7c1.9.7 4 1 5.7 2.1l5.6 9.8c-3.4-.4-6.5-1.8-9.8-2.9-.8-.3-1.8-.8-2.5 0-.5.7.3 1.4.6 2l12.6 22.4c.6 1 1.2 1 2.4 1.1 3.3.1 6.8-.3 10 .8-5 1.5-9.6 4-14.5 6-10.5 4.4-20.8 9-31.8 11.7-1.3.3-2.6 1-3.8 1.5-.1-4.4.7-8.7 1-13 .7-5.8.8-5.7-5-5.7h-7.3c-2.6-.2-2.7-.4-1.7-2.9 3.2-.5 6.5-.4 9.7-1.5h1.7c3.7-.4 7.4-.8 11.1-1 1.2-.2 1.2-.8 1-1.5l-.5-7.5c0-1-.7-1.2-1.5-1.2-.4-3.7-.6-7.4-1.1-11.1-.7-4.9-.8-9.8-2.3-14.5-.7-2.2-1.7-4.7-4.4-5-4.5-.5-8.2-2.7-11.8-5.3 1.3-.1 2.5.3 3.8.6 2.6.7 2.7.5 2.8-2.2v-1l3.6-.6c2.4-.3 3.6-1.7 3.6-4.1l-.2-5.4z"/>
        <path fill="#F75084" d="m384.8 269.4 1 1.2v.1h.1l.3.5.2.6.3 1v2.2l-.1 1.5c-.5 3.2.1 6.4.3 9.6l-.3 13.3c-.2 4.8-2.2 6.7-7 6.7-8.8 0-9.2.3-12.8 8.4-.5 1.2-.5 3.2-2 3.3-1.3.1-1.8-1.8-2.6-3a64.2 64.2 0 0 1-4.2-6c-1.1-1.8-2.6-2.7-4.8-2.5-2 .2-4 .1-5.9.1a9 9 0 0 1-7.2-3c-.1-.9-.4-1.9-.4-2.8v-29l.2-.4.4-.8.4-.5c2.1-1.9 4.7-2 7.3-2l31-.1a9 9 0 0 1 5.8 1.6zm-16.2 14.9c.2-3-1.2-5-3.8-6.2-2.2-1.1-4-.1-5.4 1.4-.8.9-1.2.6-2-.1-1.7-2-3.8-2.3-6.2-1.1-3.8 1.8-4.5 6.5-1.7 10.4 2 2.8 5 4.4 7.7 6.3 1.7 1.2 3 .9 4.4-.4 1.6-1.5 3.2-3 4.6-4.6 1.4-1.6 2.7-3.3 2.4-5.7zm7.3 1v-5c0-.7-.2-1.7-1.1-1-1 1-2.3 1.3-3.3 2.2-.4.3-.9.6-.7 1.2.3.7 1 .5 1.5.3 1.9-1 2 .2 2 1.5.2 2.8.1 5.6.2 8.4 0 .7-.2 1.8 1 1.7 1.1 0 1-1 .9-1.7l-.5-7.6z"/>
        <path fill="#4B7FE1" d="M352.9 206.7c-1.8-1.1-3.8-1.4-5.7-2.1a29 29 0 0 1-16.2-12.7c-.4-.8-.8-1.6-.4-2 2.2-2 .2-3.5-.3-5.2a10 10 0 0 1 2.4-3c1.5-1.1 1.2-3 1-4.5-.2-1.6-.7-3-.8-4.6-.2-2.1.5-2.5 2.3-1.4 4.7 2.8 9.4 5.6 14.5 7.5a53 53 0 0 0 11.3 2.7c3.6.5 6.8 1.9 9.5 4a10 10 0 0 0 7 2.7c1.4 5.3-1.6 8.6-5.4 11.4a91 91 0 0 1-9.3 6.2c-3.2 2-6.5 1.6-10 1zm-22.8-53.1c-.2 1.5-1.5 2.5-1.9 3.9-3.3 1.7-7 2.9-10 5 1.1-10 4-19.7 6-29.5 1-4.4 2.8-8.6 3.3-13.2l5.5-16.1c.5-1.4.2-2.8.1-4.1 1-1.7 1.8-.4 2.5.1 4.5 3.6 8.8 7.6 14.2 10-.2 1.5-.6 3-1.4 4.3l-6.9 11.6a86.7 86.7 0 0 0-11.4 28z"/>
        <path fill="#F7F5D9" d="M364.1 448.2c-.8-3-.3-6-.2-9.1 0-4.6.9-9.2-.2-13.8l.4-1.4v-1.6l1.6-22.4c.2-1.9.1-3.7 0-5.6-.3-3.3 1.3-6.4.9-9.6l1-12.7c.7-11 1-21.8 2-32.7.4-4.1.3-4.1 4.6-3.5-1 2.1-1 4.5-1 6.7-1.3 18.3-2.1 36.7-3.6 55-1 12.6-1.9 25.3-3 37.8-.5 4.4-1.2 8.7-2.5 13z"/>
        <path fill="#4B7FE1" d="M371.9 239.9c-3.3-1-6.8-.7-10.1-.8-1.2 0-1.8-.1-2.4-1.1l-12.6-22.4c-.3-.6-1-1.3-.6-2 .7-.8 1.7-.3 2.5 0 3.3 1 6.4 2.5 9.8 3l15.5 20.1c1.6 2.2 1.6 2.2-1.2 3-.3 0-.6 0-1 .2z"/>
        <path fill="#F75084" d="M318 424.9c-.6 2-.2 4-.2 6 .1 5.8-.3 11.7.4 17.4l-.6.7-5.5-.3c0-7.1 0-14.3.2-21.5 0-4 0-7.9.5-11.7.3-2.8 2.5-4.6 4.7-6.2l.6 15.6z"/>
        <path fill="#261556" d="M330.1 153.6a86.7 86.7 0 0 1 11.4-28l7-11.6c.7-1.3 1.1-2.8 1.3-4.4 1.2 1.5 1.3 3 .8 4.8-2.4 2.1-3.2 5.1-4.9 7.7a151 151 0 0 0-12 25c-.3.7-1.2 1.4-.1 2.1l-1 1.8-.3-.4.4.3c-.8 1-1 2.6-2.6 2.7z"/>
        <path fill="#4B7FE1" d="M333.6 149.2c-1-.7-.2-1.4 0-2a157 157 0 0 1 12.1-25c1.7-2.7 2.5-5.7 4.9-7.8l.5 1.3c-3.2 5-6.9 9.6-7.5 15.8-.2 2-1.8 3.2-2.6 5a102 102 0 0 1-7.4 12.7z"/>
        <path fill="#261556" d="M377.7 187.5c.6-8.3-.1-16.6-.2-24.8v-3c1.7 7.5.7 15 .8 22.6 0 1.7.2 3.6-.6 5.2zm-.4-28.7v-1 1z"/>
        <path fill="#ABD0D6" d="M202.7 426.8c-2.2 1-4.8 1-6.6 3-1.9.9-4.1 1.2-5.5 3-5.8 0-11.6-.2-17.4-.1-1.7 0-2.6-.5-3.2-2.2a46 46 0 0 0-8.6-15.5h1.7c8-.6 13.7-8 11.7-15.4a14.8 14.8 0 0 0-13.5-10.5c-2.4 0-5.2-1-7 1.5-4.3-4.8-8.1-9.8-11.9-14.9-3-4-5.9-8.3-8.8-12.5a13.8 13.8 0 0 1-2.4-7c-.1-1 0-2.3-1.6-2-2.1.3-2.2-.9-2.3-2.6-.3-24.5-.2-49 0-73.5l.4-37 .1-1.9c.1 0 .2 0 .3-.2.5 0 1 .2 1.5.1 3.7-.6 6.4.1 7.4 4.4.3 1.7 2 2.6 3.9 2.9.8.1 1.7.3 2.6.3l36-.2c3.5 0 5.2-1.3 6.1-4.7.6-2 1.3-3 3.5-3 1 0 2-.6 3-.9 1.8 1.2 3 2.7 4 4.5.7 1 1.3 2.6 3 1.3l.8-.4.4-.5c1.4-.3 2-1.4 2.5-2.4l.5-.5.1-.1c4 .6 8.5 6 9.3 10.8.3 2.5.1 5 .1 7.6.2 33.1-.3 66.3.2 99.5.2 10.7-.1 21.4-.5 32.2a31 31 0 0 1-5.2-1.5l-1.1-.8c.2.6.4 1.2 1.2.8 0 1.9-1.3 2.4-2.7 2.9l-4.1-.5c-7.9-1.2-14 3.3-15.3 11.1-.8 4.8 2.5 10 7.5 11.8 4.3 1.5 10.8-.6 13-4.3 1.3-2.7 1.4-5.6 1.5-8.6 0-2.9.6-5.7 2.2-8.1.6-1 1-2.2 2.6-1.6-.5 3.8-1.7 7.4-1.2 11.2v1.1c-.6 2.1-1.4 4.3 2.2 5l-2.3.4c-.3.1-.5.4-.7.6 2.4 2.7-1.8 2.7-1.9 4.4 0 2.3-1.8 4-2.2 6l-.2.6a1288 1288 0 0 1-.4 2c-1.2 1-2.6 2-2 4l-.7.4zm-46.3-122.5h-11c-6 0-9.8 3.2-11.3 9-2 8.2-1.3 16.7-.6 25 .2 3.2 1.3 6.2 3.4 8.8 2.4 2.8 5.1 4.3 9 4.2 3-.2 6-.4 8.2 2.5 2 2.8 4 5.3 5.7 8.3.3.5.2 1.4 1 1.5 1 0 1-1 1.4-1.6 1.7-3 3.4-6.2 6-8.7 1.9-2 2.6-1.9 4.5.3l7.2 8.3c.3.4.7 1 1.3.8.8-.2.5-1 .5-1.4v-8.1c0-1.8.6-2.8 2.3-3.6 4.3-2 6.4-5.7 7-10.1.8-6.8.9-13.6 0-20.3-.6-5-2-10-6.6-13-2.6-1.8-5.4-1.9-8.2-1.9-6.6-.1-13.2.6-19.8 0z"/>
        <path fill="#F75084" d="M270.3 269.4c-3.5 7-6.8 14.2-10.4 21.3-1.5 3-3.1 6-4.4 9.1a26.3 26.3 0 0 0-2 12c.5 5.8.8 11.8.3 17.6a57 57 0 0 1-5 18c-4.8 11-9.8 22-14.7 32.9l-13.7-.2c-1-1.3.5-2.2.8-3.3 4-15 8.3-30 11.6-45.3 1.7-8.2 2.5-16.4 3.3-24.6.6-5.4 1-10.8 2.5-16 4.8-16.7 8.5-33.5 12.2-50.4a6 6 0 0 0-.6-4.5l7.7 1.4c3.3 3 7.8 4.5 10.6 8 .3.5 1 .5 1.3 0 1.2-1.7 2.8-1 4.2-.4 5.1 2.2 5.8 1.7 3.1 7.2-2.7 5.5-4.3 11.5-6.8 17.2z"/>
        <path fill="#ABD0D6" d="M149.5 405.8c1.3 4.4 4 8 6.8 11.5 3.2 4 6 8.2 9.1 12.4.6.8 1 1.8.6 2.8-.4 1-1.4.6-2.2.6-15.5-.9-31-.2-46.4 0-1.1 0-2.3 0-3.4-.2-2.7-.4-4.3-1.9-4.4-4.7l-.1-12-.3-30-.1-1.5c-1.1-2.6-.1-4.6 1.5-6.7 3.2-4 6.2-8.2 9.3-12.4.4-.5.7-1.3 1.5-1 .8.3.5 1.1.5 1.7 0 6.6 0 13.3.2 19.9 0 4.2-.1 8.3-1 12.4a14 14 0 0 0 1.4 10.1c.6 1 1.2 2 1 3.2-.4 2.8-.2 5.6 0 8.3.1.6.2 1.5 1 1.5.9 0 1-.8 1.1-1.4.6-2.8.8-5.7.7-8.5l.4-.3c4.6-.2 8.3-2.4 10-6.4 1.5-3.8.3-7.7-2.5-10.9-1.8-2-3.8-3.6-6.8-3.1 0-8.6.3-17.2.3-26 6.4 10.6 15.2 19.4 21.8 30-.1 1.2 0 2.5-1.1 3.5-1.9 2.7.2 4.9 1 7.2zm-40.3-80.3v-72.3c0-5.8 2.7-10.2 8.2-12.6 1.5-.7 3 .3 4.5-.9v16.7c-.2 31.6.2 63.1-.3 94.7 0 1.6 0 3-2 3a2 2 0 0 0-2 1.9c-.1 3.8-2.4 6.4-4.7 9.1-1.2 1.4-2.2 3-3.7 5-.1-14.1.6-27.6 0-41.1a7 7 0 0 0 0-3.5z"/>
        <path fill="#F7F5D9" d="M250.2 236c.9 1.4 1 3 .6 4.5a783.7 783.7 0 0 1-12.2 50.3c-1.6 5.3-1.9 10.7-2.5 16.1-.8 8.2-1.6 16.4-3.3 24.6-3.3 15.3-7.6 30.2-11.6 45.3-.3 1.1-1.7 2-.8 3.3-1.2.1-2.3 0-3.5 1.4l2-10.3c2-3.3 2.2-7.2 3-11 2.7-13.3 5.9-26.7 7.7-40.3.6-4.7 1.6-9.5 1.6-14.2.1-9.6 2.5-18.6 5.3-27.6l1.9-6.3c.5-.9.9-1.8.7-3l4.2-17.7 4.3-16.5 2.6 1.4z"/>
        <path fill="#4B7FE1" d="M205.8 409.4c-2.2 3.7-8.7 5.8-13 4.3-5-1.7-8.3-7-7.5-11.8a12.8 12.8 0 0 1 15.2-11.1l4.2.5c-.8 1.2-2.2 1.6-3.3 2.4-2 1.4-3.8 3-4.4 5.6-.3 1.7.5 2.8 2 2.4 1.5-.3 3-.9 3.8-2.4.5.2.8 0 1-.5.3 0 .5-.1.5-.5l1.4-.5.3.2-.2 11.4zm-78.4-18.3c3-.5 5 1.1 6.8 3.1 2.8 3.2 4 7.2 2.4 10.9-1.6 4-5.3 6.2-9.9 6.4 0-6.8.4-13.6.7-20.4z"/>
        <path fill="#F75084" d="M171 409.4c-3.9-3.1-6.8-7-9.6-11-1.4-2-3-4-4.6-6 7-3.1 15.9 2.3 16.2 10.1.1 2.5.4 5.1-2 6.9zm-12.8 3.4c-4-1.4-6-4.7-8-8-.3-3.2.3-6.3.7-9.4 4 4.9 7.7 10 12.8 13.7 1.2.8 2.7 1.4 3 3-2.7 1.7-5.6.7-8.5.7z"/>
        <path fill="#F7F5D9" d="M158.2 412.8c2.9 0 5.8 1 8.5-.7 1.6-.6 4.3.5 4.3-2.7 2.4-1.8 2.1-4.4 2-6.9a11.8 11.8 0 0 0-16.2-10c-1.3 0-2-.8-2.6-2 2-2.4 4.7-1.4 7-1.4 6.2 0 12 4.7 13.6 10.5 2 7.4-3.7 14.8-11.7 15.3l-1.7.1-3.2-2.2z"/>
        <path fill="#ABD0D6" d="m202.8 399.3-3.2 1c-.5.2-.9.4-1.3 0-.5-.5-.4-1 0-1.5 0-.2 0-.3.2-.4l10-8.5c0-.2.5 0 1.2.1-2.7 2.4-3 6-5.4 8.3-.3 0-.5.2-.5.5-.4 0-.9 0-1 .5z"/>
        <path fill="#F7F5D9" d="M190.6 432.7c1.4-1.7 3.6-2 5.5-3 .9.3 1.5 1 1.9 1.8 1 2 .6 2.6-1.5 2.6l-4.2.1c-1 0-1.8-.2-1.7-1.5z"/>
        <path fill="#4B7FE1" d="M126.3 411.8c.1 2.8 0 5.7-.7 8.5 0 .6-.2 1.4-1 1.4-.9 0-1-.9-1-1.5-.3-2.7-.5-5.5 0-8.3.9.3 1.8 0 2.7-.1zm84.6-9.5c-.5-3.8.7-7.4 1.2-11.2 1.6.7 1.3 2.2 1.4 3.5v3c-.5 1.8 0 4.2-2.6 4.7z"/>
        <path fill="#F7F5D9" d="M150.9 395.4c-.4 3-1 6.2-.6 9.3l-.9-.8c-.5-1.8-1.3-3.5-1-5.3 1-1 1-2.3 1.1-3.6.6 0 1-.2 1.4.4z"/>
        <path fill="#F75084" d="M213.5 388c1-2.1 2-3.1 3.9-2l.2.1c.8.4 2.6-.8 2.5.8 0 1.1-1.9.9-3 1-1 .2-2.2 0-3.6 0zm-7.5 31.9c.4-2.2 2.2-3.8 2.2-6.1v.7c1.6 2.8 1.4 4.8-2.2 5.4zm-2.6 6.5c-.6-2 .8-3 2-4 .7.6 1.7.2 2.8.9l-4.8 3zm7.5-24.1c2.6-.5 2-2.9 2.6-4.6 1.4 1.7 0 3.8.6 5.6.2.6-.3.8-.9.6l-2.3-.5v-1zm3.7-12c2-1.2 3.8-.5 5.5.6-1.9.4-3.6-.8-5.5-.6z"/>
        <path fill="#4B7FE1" d="M148.4 398.6c-.3 1.8.5 3.5 1 5.3v2c-.8-2.4-2.9-4.6-1-7.3zm-39.2-73.1z"/>
        <path fill="#F75084" d="M205.7 420.7v-.3.3z"/>
        <path fill="#4B7FE1" d="M141.6 233.4zm64.1 164.4.3-.3c.2.2.1.4 0 .5l-.3-.2zM128 239c0 .2 0 .2-.2.2l.1-.2h.2z"/>
        <path fill="#F75084" d="M202.7 426.8z"/>
        <path fill="#4B7FE1" d="M237.2 101a43.2 43.2 0 0 1 6-32.3 478 478 0 0 0 16.5-28l1.6-2.1.4.7c-.2.7-.2 1.5-.6 2a21.6 21.6 0 0 0-2 14.8c1.9 11 3 22 4 33l-1.8.6c-4.7 1.2-8.4 3.4-9.9 8.6-1.5 5.7-2.5 11.5-4 17.1-2.1-.5-2.4-3-4.3-3.7l-5.9-10.7z"/>
        <path fill="#F75084" d="m227.6 246.5-.5-1.4v-.1l-.5-1a20.4 20.4 0 0 1-.4-13.3c.2-.6-.1-1.3-.1-2 .9-1 0-1.2-.7-1.4-4-1-6.2-3.9-8.2-7.1-3.4-5.6-4-11.8-4.4-18.1 0-.8.4-1.4.9-2 3.4-3.7 6.4-7.9 10.2-11.2 4.7-4.1 7-9 7.3-15.1l.3-2c1.2-6.8 3.8-13.3 4.7-20.1l.5-1.3v-.2a10005.1 10005.1 0 0 1 2.4 11c-.2 4.8 1.4 9.4 2.6 14 2.7 10.2 5.4 20.4 6.5 30.9 0 .7.7 1.7-.2 2.1-.9.4-1.4-.7-2-1.2-4-4-9.1-6.5-14.6-7.8-6.3-1.6-12.4 1.8-13.7 7.2-2 7.7.4 14 6 19.2 1 .8 2 1.6 3.2.4 3.3.2 6.5 1 9.6 1.8 3 .6 3.5 1.7 2.9 4.7l-2.8 14.3c-.7 0-1.2.4-1.6.9-1.2-1.6-.8-3.6-1.6-5.3 1.8-2.7.9-5.4.3-8.2-.2-.9-1.1-.8-1.6-.8-1 .1-.6 1-.6 1.6 0 2 1 4.1.7 6.3-1 .6-1.4 1.6-1.9 2.6-.6 1.3-.6 2.8-1.9 3.8l-.4-.4s0-.2-.2-.2c.1-.3 0-.5-.2-.6z"/>
        <path fill="#261556" d="M245 125.7c.8-1 .8-2.4 1.3-3.6.3 1.4 0 2.7 0 4.1a13 13 0 0 0 2.3 8.8c1 1.2 1.8 1.4 2.6-.1l2.5-4.2c5.3 9.3 6.8 19.3 8.8 29.5h1.8c-.3 2.8-.6 5.5.5 8.1-.6.9-1.7.6-2.5.9-1 .3-1.6 1-1.5 1.8.3 4-.7 7.8-1 11.7-.7 7-2 13.8-3.4 20.7-.2-1-.2-2-.2-3a169 169 0 0 0-4.4-40.6c-2-8-4.3-15.9-5.1-24.1-.2-2.1-.4-4.5-1.8-6.4.4-1.2.2-2.4 0-3.6z"/>
        <path fill="#F7F5D9" d="M236.2 151.7c-1 6.8-3.5 13.3-4.7 20.2l-.3 1.9c-.3 6-2.6 11-7.3 15.1-3.8 3.3-6.8 7.5-10.2 11.2-.5.6-1 1.2-1 2 .4 6.3 1 12.5 4.5 18 2 3.3 4.2 6.3 8.2 7.2.8.2 1.6.5.7 1.4-8.6-1.4-13.3-7.1-16-14.7a59.4 59.4 0 0 1-3-13.4c-.3-1.8.6-3.3 1.6-4.7 7-10.4 13.6-21.1 20-32 2-3.5 3.7-7.3 5.7-10.8.3-.6.3-2.2 1.8-1.4zm28.6 16.6c-1-2.6-.8-5.3-.5-8.2l-1.8.1c-2-10.2-3.5-20.2-8.8-29.5l-2.5 4.2c-.8 1.5-1.7 1.3-2.5 0-2-2.5-2.6-5.5-2.4-8.7 0-1.4.3-2.7 0-4.1l1-6.7c1.6-5.6 2.6-11.4 4.1-17 1.5-5.3 5.2-7.5 10-8.7l1.8-.5.4.3c-2 4.5-4.5 8.8-5.6 13.7-1 4.3-3.4 8.1-4.8 12.3-1.6 4.4-1.6 8.6 1 12.6 5.4 8.2 8 17.4 9.3 27 .1.7.4 1.3.4 2 .1 2.2 1.4 1.7 2.7 1 4-2 5.3-1.8 8.7 1 0 .2.2.3.4.3l.2 1.8a9 9 0 0 1 .3 4.4c-1-.4-1 1.3-2 1-.1-1.6-1.5-3-.3-4.7.2-.2-.2-1-.6-1.3-1.3-1.2-2.6-2-4.6-1.2-1.8.7-3 1.7-3 3.8 0 1.4-.2 2.8.8 4l.4 1.2-1.6.8-.5-.9zM245 125.7c0 1.2.3 2.4 0 3.6-1 1.1-1.2 2.5-1.5 3.8-2.4 9.2-4 18.5-4.4 28l-2.6-10.9c-1-7.1 2.9-12.8 5.7-18.9l2.8-5.6z"/>
        <path fill="#ABD0D6" d="m232.2 128.2.2.1-.2.1z"/>
        <path fill="#4B7FE1" d="M227.6 246.5zm12-138.4.1.1h-.2z"/>
        <path fill="#ABD0D6" d="M202.3 171.2c-.1-.3 0-.5.3-.6l-.3.6z"/>
        <path fill="#4B7FE1" d="m227 244.9.2.1-.1.1zm1 2.4.3.3c-.1 0-.3 0-.3-.3z"/>
        <path fill="#261556" d="M327.5 119.8c-.5 4.6-2.4 8.8-3.3 13.2-2 9.8-4.9 19.5-6 29.5-2.6 3.2-2.5 6.6-1.3 10.2l1.3 4c-.3-.2-.8-.3-1-.6-2.4-4-5.6-7.4-8.4-11-.5-.7-1-1.6-1.9-1.5-2.5.3-5.2 0-7.5 1.4-3.2-.3-6 1-9 1.4-1.3.2-2 0-2-1.2l-.2-7.2 3.8-.9 8.7-1.5c1.2-.2 2.1-.7 2.3-2 2.4-13.3 7.3-25.9 9.9-39 .2-1 .4-2 .3-3.1 0-.8-.2-1.8.6-2.3 1-.5 1.5.3 2.1.8 3.4 2.3 6 5.5 9.2 8.2.7.6 1.3 1.4 2.4 1.6zm-63.9-30.3-.4-.3c-1.1-11-2.2-22.1-4-33-.8-5.2-.7-10.1 1.9-14.8.4-.6.4-1.4.6-2.1h.2l-.2-.2v.2l-.4-.7c2.7-4.5 5.3-9 10.4-11.3a27 27 0 0 1 2.3-.9c.7-.2 1.3-.1 1.6.7.2.9 0 1.5-1 1.7-6.4 1.5-8.7 6.7-10.8 12.1-.3.7-.2 1.4.1 2 4-2 7-1.6 8.9 1.2-.7-.3-1.3-.6-1.9-.7-4.6-1.3-6.8.4-6.6 5 .3 8 4.4 14.2 10.1 19.4 2.4 2.2 7.2 2.3 10 .5 4.2-2.7 6.7-6.8 7.8-11.6.7-3.6-.5-7-2.8-10 .2.3.5.5.7.2.4-.3.3-.6 0-1-.3-1.1-.7-1.4-1.8-.6a8.5 8.5 0 0 1-5.9 1.3c-.5 0-1.2-.2-1.4-.8-.2-.6.3-1 .7-1.4a5.7 5.7 0 0 1 4.6-1.7c.6 0 1.7 1 1.7-.4.1-1-.7-1.7-2-1.5-1.9.4-3.7.9-5.5 1.8-.4.2-1 1-1.4.1-.3-.6.2-1 .7-1.3 1.7-1 3.5-1.8 5.5-2.1 1-.2 1.3-.8 1-1.7l-2.2-5.7c-1-2.2-3-3.2-5.5-3.2 1.8-1.6 4.8-1 6 1.2 1 2 1.9 4 2.6 6 1.8 5.5 4.8 10.3 7.8 15.2-1.4-.1-1.8.5-1.6 1.9.7 5 .9 10.2.7 15.3-1.1-2.5-1.2-2.6-2.8-.2a26.8 26.8 0 0 1-9 9c-1.3.7-2.5 1.1-4.2.6-2-.7-.8 1.2-1.1 2a7.1 7.1 0 0 1-3.8 6c-2 1.3-4 2.7-6.5 3l-3.1.8zm28-40.7-.2-.2-.2.3.2.2.1-.3zm-1.4-1.5.2.3.1-.1-.1-.4-.2.2z"/>
        <path fill="#F7F5D9" d="M266.7 88.7c2.5-.3 4.4-1.7 6.5-3a7.1 7.1 0 0 0 3.8-6c.1.4.4.9.3 1.4-.1 3.7 2.6 5.2 5.2 6.4a35 35 0 0 0 12.7 3.3l1.2.2c2.1.4 2.4 1.2 1.2 3-3.9 6-8.6 11-14.6 14.9-5 3.1-10.5 4.4-16.4 2.7-3.2-.9-4.2-2.6-4.3-6 0-4.2 1.3-8.1 2.7-12l1.7-4.9z"/>
        <path fill="#4B7FE1" d="M294.1 68.3c.2-5.1 0-10.2-.7-15.3-.2-1.4.2-2 1.6-2 0 .5.2.8.5 1l.7.5c6.4 6.3 12.7 12.8 18 20 2.8 3.7 4.4 8 5.8 12.3.2.6.6 1.3 0 1.8-.6.4-1.2-.2-1.6-.5-3.2-2.2-6.6-3-10.5-3.3-6-.5-11-3.2-12.5-9.8l-1.3-4.7z"/>
        <path fill="#261556" d="M268.3 49.2c-1.5 0-2.7-.4-2.6-2 .1-1.9 1.6-2 3-2.1 1.8 0 4.5 1.6 4 2.5-1 1.6-3 1.2-4.4 1.6z"/>
        <path fill="#4B7FE1" d="m292 157.1-3.9 1c-1.3-.5-2.8-1.4-3.9.4-2.8 1-5.7 1-8.5 1a.4.4 0 0 1-.4-.3 23 23 0 0 1 12.9-2.4c1.2.2 2.5.2 3.8.3z"/>
        <path fill="#261556" d="M295.5 52zm.7.5-.7-.5.7.5z"/>
        <path fill="#F7F5D9" d="M230.8 34.4c-.5-.6-.3-1.3-.5-2 .6.6.5 1.3.5 2z"/>
        <path fill="#ABD0D6" d="m178.3 79.7-.8.2c-.2 0-.3-.3-.1-.5l.6-.3c.2 0 .5 0 .3.6z"/>
        <path fill="#4B7FE1" d="M198 67.7c0 .2.2.3.3.4l-.4-.4zm-.5 0z"/>
        <path fill="#ABD0D6" d="M435 317.4c2 5.7 2 11.7 2.3 17.7-1.1 1.1-2.6.8-4 .8-2.6 0-5.3.3-8-.4l.3-.7c2.2.5 4.4.2 6.6.3 4.3 0 4.5-.2 4-4.6l-1.2-13.1z"/>
        <path fill="#F7F5D9" d="M318.4 236c-3.1 1.1-6.5 1-9.7 1.5l-17.7 2c-1.3.2-2.6 1-1.2 2.2 3.5 2.8 3.2 6.7 3.6 10.4 1.4 15 3.7 30 3.6 45.2 0 3.2 1.2 6 2 9 2.4 10 2.4 20.3 2.5 30.6a226 226 0 0 1-4 42.6v1l-1.4.3c-.3-5 .9-10 1-15 .6-18.3 1.6-36.6 0-55-.4-5.3-1.9-10.4-3-15.6-1.5-8-2-16.3-3-24.5l-.6-4.8v-2.7c-1.3-6.3-1.5-12.8-2.3-19.2-.4-3.7-.2-3.7-3.8-4.1.1-.6.3-1.3.3-2-.2-2.3.4-4.9-1.4-7-.1-1 .7-.7 1.2-.9h2.2c7.3-1.3 14.7-2 22-2.7h5c2.7.8 3.5 2 2.6 5-.7 2.2-.4 3.4 2 3.7z"/>
        <path fill="#261556" d="M284.4 239.9c3.6.4 3.4.4 3.8 4.1.8 6.4 1 12.9 2.3 19.2v2.7c-5.6 1.2-11.2 2.3-16.8 3.1l-3.4.4c2.5-5.7 4-11.7 6.8-17.2 2.7-5.5 2-5-3.1-7.2-1.4-.6-3-1.3-4.2.5-.3.4-1 .4-1.3 0-2.8-3.6-7.3-5.2-10.6-8.1l2.9.4c7.8 1.3 15.7 2 23.6 2z"/>
        <path fill="#F75084" d="M288.7 412.6c-.4 1.3.2 2.1 1.4 2.6l2 .6c.8.3 1.7.7 1.4 1.7-.3.9-1.1 1-1.9.8l-2.6-.7c-.7-.2-.7.3-.8.8l-.1.1h-.9c-.7-2.3 1.3-3.9 1.5-6zm9.2-15.6c1 .3 1.2 1.1 1.6 2-2.6-.3-4.3 1.3-3.9 3.8a11 11 0 0 0-3.9-1.1l.5-2.6 4.5-.4c1-.1 1.8-.5 1.2-1.8zm-7.3 9.7c1.8 0 3.6 0 5.3-.6.5-.2 1.1-.6 1.4.1.4.9-.3 1.2-1 1.4-2.2.7-4.5 1.3-6.9 1.5 0-1 .5-1.8 1.2-2.4zm-4.1 13.5c-.4 1.7 1 1.5 2 1.6 1.2.2 2.5-.2 4 1.3l-7.6 1.2c-.4-1.8 1.7-2.5 1.6-4.1zm8.6-34.2c1.7 0 3.4-1 5.2.2a8.5 8.5 0 0 1-6.8 1.8c.2-1 .9-1.5 1.6-2z"/>
        <path fill="#F75084" d="M289.5 410.6a14 14 0 0 1 5 .5c.4.1.9.3.9.7 0 .7-.6.7-1 .7l-5.7.2.8-2z"/>
        <path fill="#F7F5D9" d="M427 151.8a8 8 0 0 1-2 4.8c-2.3 3-5.3 5.5-8.2 8-1 .9-1.8 1.2-3 .1l-7-6.7a9.4 9.4 0 0 1-3-5.5c-.3-2.8.7-4.8 3-6 2.4-1.3 4.7-1 6.6 1.1 1.5 1.7 2.3 2.4 4 .1a5 5 0 0 1 6.1-1.7c2.3 1 3.6 3.2 3.5 5.8zm29.8-6.1c4.3 0 6.7 3.7 4.8 7.6-.5 1-.4 1.7 0 2.6 1.8 3.6 1.5 5.3-1 7.5a5.8 5.8 0 0 1-9.1-1.4c-.9-1.5-1.1-3.1.3-4.4 1-.9 1-1.6.3-2.5-.3-.4-.4-.9-.6-1.3-1.9-4 .8-8 5.3-8zm0 10.9c-1.7 0-3.7-.3-3.8 2.3-.1 1.6 2 3.8 3.7 3.8 1.8.1 3.6-1.5 3.6-3.2 0-2-1-3-3.6-3zm-.1-2c1.5 0 3.4-1.8 3-3.2-.3-1.7-1.3-3.1-3.2-3-1.5 0-3.1.5-3 2.6 0 2.1 1.4 3.6 3.2 3.6zm-12.4.8v7c0 1 .6 2.5-1.1 2.5-1.6 0-1-1.5-1-2.4l-.4-10.7c0-1.3-.3-2-1.6-.8-.7.6-1.5 1-2 0-.4-.9-.2-2 .7-2.1 1.4-.3 2.1-1.4 3-2.2.6-.5 1.1-1 1.8-.7.8.4.5 1.2.5 1.8v7.6zM40.6 335.2c-.2-3.2-.2-6.4.5-9.5A19 19 0 0 1 51.3 313c.5-.3 1.2-.4 1.5-1 5.2-1.3 10.3-2 15.6-.2a20 20 0 0 1 14 15.1c1 4.4.6 8.4-.9 12.4a21.1 21.1 0 0 1-32.8 8.1 19.8 19.8 0 0 1-7.7-11.3h-.1l-.3-1zm21.1 13.1c9.4.3 17.2-6.6 17.6-15 .5-10.5-6.4-18.3-16.4-18.8-12-.7-18.4 7-18.8 17-.4 8.4 8 16.4 17.6 16.8zm23.7-32.9c-1.5-.3-3.7.4-4.1-2.3 0-.3-.2-.8 0-.9 1.6-1.4 3.6-.6 5.4-1 1-.2 1.7.3 1.9 1.4.3 2.3-.2 2.9-3.2 2.8z"/>
        <path fill="#4B7FE1" d="m40.9 336.1.1.1-.1.1-.1-.1z"/>
        <path fill="#F75084" d="M298 397c-1.3-1.8-3.3-2.7-4.4-4.6-.4-.7-1-1.6-.2-2.1 1-.7 1.3.4 1.7 1 1 2 2.4 3.5 2.8 5.7zm5.3-8.2h-5.4v-.2l5.3-.2v.4zm-3.9 3.5-3.3-2.6c2.2 0 2.9 1 3.3 2.6zm-11.2 26.1.2.3-.3-.2.1-.1z"/>
        <path fill="#ABD0D6" d="M435 317.3c-.6-.3-.6-.8-.5-1.3l.5 1.3z"/>
        <path fill="#4B7FE1" d="M410.7 308c0 .4-.1.7-.5 1l.5-1zm-.5 1-.4 1c0-.4 0-.8.4-1zm-.5 1.4c0 .4 0 .8-.4 1 0-.4 0-.8.4-1zm1.5-3.8-.4 1c0-.4 0-.8.4-1zm.9-2c0 .4 0 .7-.4 1l.4-1zm-.4 1c0 .4-.1.7-.5 1 0-.4.1-.8.5-1zm1-1.9-.3.4c0-.2.2-.3.3-.4z"/>
        <path fill="#ABD0D6" d="M425.5 333.8zM248 448.4c0-.4.1-.5.4-.6l-.5.6z"/>
        <path fill="#F7F5D9" d="M36.2 311.1c1.4.4 3.9-.8 3.8 2.3 0 .4-.2.9-.4 1.1-1 1-6.8.9-7.7-.1-.6-.6-.9-1.3-.7-2 .2-.8.9-.9 1.5-1 1.2 0 2.3-.2 3.5-.3zm280.7-138.4c-1.2-3.6-1.3-7 1.2-10.2 3.2-2.1 6.8-3.3 10.1-5 11-5.8 22.4-11.1 34.1-16.1 0 1.7-.5 2.5-1.4 2.8-8.7 3-16.2 8.1-24.7 11.3 3.7-.4 7-2 10.7-2.7 1.4-.2 2.8-.5 4-.2 2.8.7 4.5-.3 6-2.4.1-.3.3-.7 1-.8a36.2 36.2 0 0 1-17.1 17l-2.7 1.2a5.9 5.9 0 0 1-6.7-.6c-2.6-2-5.7-2.5-9-2.4-3.5.3-4.2 1-5 4.5l-.5 3.6z"/>
        <path fill="#4B7FE1" d="M299.4 165c2.3-1.3 5-1 7.5-1.4 1-.1 1.4.8 1.9 1.4 2.8 3.7 6 7 8.4 11.1.2.3.7.4 1 .6 2 .3 4-.7 6-.5l.2 5.4c0 2.4-1.2 3.8-3.6 4.1l-3.6.6a12 12 0 0 1-2.3-5.3c-.6-4-3-6.1-6.3-7.8l-1.3-3.2c-1-2.5-2.7-4-5.6-3.7-1 .1-2.2.4-2.3-1.3zm33.3-14-.4-.4.3.4h.1zm-22.1 38c3.6 2.5 7.3 4.7 11.8 5.2 2.7.3 3.7 2.8 4.4 5 1.5 4.7 1.6 9.6 2.3 14.5.5 3.7.7 7.4 1.1 11.1a32 32 0 0 1-8.1.9l-.6-6.6-3.1-19.8c-.2-1.2-.6-3-1.8-3.3-4-.7-7.6-3.5-12-3.3-2.1.1-4.4.3-5.5-2.3-.3-.7-1.1-.6-1.8-.6-.6 0-1.4 0-1.5-.9h1.4a4 4 0 0 0 1.8-1l.9-.2c1.5 1.5 3.5 1.2 5.2.9 2-.4 3.7-.3 5.5.3z"/>
        <path fill="#F75084" d="m297.2 188.8-1.4.1-1.3-.5c.1-.7.5-1 1.1-1.4 2.1-1 4.5-1.5 6.4-3 1.6 0 2.6-1 4.2-2.2-3.6 0-6.6-.6-9.2 1.7l-2.9 1.1c-.5.2-1 .4-1.3-.1-.4-.5 0-.9.3-1.3 1-2 3.1-2.7 4.6-4.2 2.5-1.4 5.4-1.4 8.3-2.3-1-.7-1.8-.7-2.5-1-3-.7-6 .9-9 .3.5-1 1.6-1.3 2.3-2 .4-.3.4-1.3 1.2-.5 1.7 1.5 2.7.3 3.5-1 .5-.8 1-1.3 1.8-1.3h.2c0 .4.2.6.6.7l.2.1c1.2 1.5 2.7 1.4 4.3 1.2 3.2 1.7 5.7 3.8 6.3 7.8a12 12 0 0 0 2.3 5.3v1c0 2.7-.2 2.9-2.8 2.2-1.2-.3-2.5-.7-3.8-.6-1.8-.6-3.6-.7-5.5-.3-1.7.3-3.7.6-5.2-.9 2.4-1.3 5-2 7.4-3.1a18 18 0 0 0-8.4 3.3h.1c-.7 0-1.4.4-1.8 1z"/>
        <path fill="#ABD0D6" d="M322 225.7c2.8 0 5.5-.3 8.2-.9.8 0 1.4.1 1.5 1.2l.6 7.5c0 .7 0 1.3-1 1.4l-11.2 1c-.6-.5-1.2-.3-1.8.1-2.4-.3-2.7-1.5-2-3.8.9-2.8 0-4.1-2.6-5l8.4-1.5z"/>
        <path fill="#F7F5D9" d="M318.3 236c.6-.4 1.2-.6 1.8 0h-1.8zm50.3 48.3c.3 2.4-1 4-2.4 5.7-1.4 1.7-3 3.1-4.6 4.6-1.3 1.3-2.7 1.6-4.4.4-2.7-1.9-5.7-3.5-7.7-6.3-2.8-4-2-8.6 1.7-10.4 2.4-1.2 4.5-.8 6.3 1 .7.8 1 1 1.9.2 1.5-1.5 3.2-2.5 5.4-1.4 2.6 1.2 4 3.2 3.8 6.2zm7.3 1 .5 7.6c0 .7.2 1.6-.8 1.7-1.3.1-1.1-1-1.1-1.7l-.1-8.4c0-1.3-.2-2.6-2.1-1.5-.4.2-1.2.4-1.5-.3-.2-.6.3-1 .7-1.2 1-.9 2.3-1.3 3.3-2.1.9-.8 1.2.2 1.2 1v4.9h-.1z"/>
        <path fill="#42CAE3" d="m364.1 424-.4 1.3-.5-.2c0-.6 0-1.2.5-1.7l.4.6z"/>
        <path fill="#ABD0D6" d="m364.1 424-.4-.6.4-1.1v1.6z"/>
        <path fill="#F75084" d="M156.4 304.3c6.6.6 13.2-.1 19.8 0 2.8 0 5.6.1 8.2 1.8 4.7 3.2 6 8 6.6 13a82 82 0 0 1 0 20.4c-.6 4.4-2.7 8.2-7 10-1.7.9-2.3 1.9-2.3 3.7v8c0 .6.3 1.3-.5 1.5-.6.2-1-.4-1.3-.8l-7.2-8.3c-1.9-2.2-2.6-2.2-4.6-.3-2.5 2.5-4.2 5.6-6 8.7-.3.6-.3 1.6-1.2 1.6-.9 0-.8-1-1.1-1.5-1.6-3-3.8-5.5-5.7-8.3-2.2-2.9-5.3-2.7-8.3-2.5-3.8.1-6.5-1.4-8.9-4.2a15.3 15.3 0 0 1-3.4-8.8c-.7-8.3-1.4-16.8.6-25 1.5-5.8 5.4-9 11.2-9h11zm17 21c.1-3.8-1.4-6-4-7.3-2.5-1.4-5.2-.9-7.5 1-1.3 1-2 1.2-3.4 0-3.5-2.8-7.7-2.5-10.4.3s-2.7 6.2 0 10c2.8 3.8 6.7 6.5 10.4 9.6.9.8 1.8.6 2.6 0 3.7-2.8 7.5-5.4 10.4-9a8 8 0 0 0 2-4.7z"/>
        <path fill="#261556" d="M207.4 388.4c-.8.4-1-.2-1.2-.8a156 156 0 0 0 1.2.8z"/>
        <path fill="#4B7FE1" d="M199 243.7c.3-.2.4-.6.9-.4l-.8.4zm3.8-3.3.5-.5-.5.5zm-3 2.9z"/>
        <path fill="#ABD0D6" d="m165.6 202.7-.3.9.3-.9zm.5-.7-.4.7.4-.8zm118.3 37.9c-8 0-15.8-.8-23.6-2-1-.3-2-.4-2.9-.5l-7.7-1.4-2.6-1.4c.4-3.4 1.3-6.6 2.3-9.8 2.7 1.3 5.7 1.5 8.7 2.1 7.5 1.6 14.9 3.5 22.5 3.8.7.3 1.5.3 2.2.2 1.8 2.1 1.2 4.7 1.4 7 0 .7-.2 1.4-.3 2z"/>
        <path fill="#261556" d="M249.9 224.8c-1 3.2-2 6.4-2.3 9.8-1.4 5.5-3 11-4.3 16.5l-4.2 17.8c-4.8.1-4.7.1-4.1-4.5l1.6-17.6 2.8-14.3c.6-3 .2-4-2.9-4.7-3.1-.8-6.3-1.6-9.6-1.8l.6-4c1.5-7.8 3-8.9 11.4-6.4l.3.1c2.3.9 3.7 2.4 3.8 5 .2 2.7 1 3.4 3.7 3.5 1 0 2.3-.6 3.2.6zm-47.1 174.5c.1-.6.6-.5 1-.5-.2.5-.5.7-1 .5zm1-.5c0-.3.2-.5.5-.5 0 .4-.2.5-.5.5zm-14.1-192.1c3.6 4.7 7.2 9.4 11.6 13.4l7.4 9.1c1.1 1.4 1 2.3-.5 3.4a62 62 0 0 0-9 7.8c-1 1-1.5.7-2.2-.2-2.8-3.4-5.5-7-8.5-10.1-7.3-7.6-13.2-16.4-20.4-24-1.5-1.6-1.3-3 1.4-5.1 2.5-2 4.7-4.4 7-6.8 1.4-1.6 2.1-1.1 3.1.3 3.1 4.2 6.7 8.1 10 12.2zm-1.6 17.9c.7-.3 1-.8 1-1.5-.2-1.5-1-2.3-2.4-2.7-.8-.2-1 .3-1 1 .4 1.3 1 2.6 2.4 3.2zm-12.8-20.7c-.5-.6-.2-2-1.4-2.1-.6-.1-1.2.8-1 1.4.4.8.8 1.8 1.8 2 .4 0 .7-.6.6-1.3z"/>
        <path fill="#4B7FE1" d="M249.9 224.8c-1-1.2-2.1-.5-3.2-.6-2.6-.1-3.5-.8-3.7-3.4-.1-2.7-1.5-4.2-3.8-5.1h-.3c-8.5-2.6-9.9-1.5-11.4 6.2l-.6 4.1c-1.2 1.2-2.2.4-3.1-.4-5.7-5.3-8-11.5-6.1-19.2 1.3-5.4 7.4-8.8 13.7-7.2A31.5 31.5 0 0 1 246 207c.5.5 1 1.6 1.9 1.2 1-.4.3-1.4.2-2.1a200.7 200.7 0 0 0-6.5-30.8c-1.2-4.7-2.9-9.3-2.6-14.2.4-9.5 2-18.8 4.4-28 .3-1.3.5-2.7 1.4-3.8 1.4 1.9 1.6 4.2 1.8 6.4.8 8.2 3 16.2 5 24.1 3.5 13.4 4.4 27 4.5 40.7 0 1 0 1.9.2 2.9a173 173 0 0 0 3.3-20.7c.4-4 1.4-7.7 1-11.7 0-.9.5-1.5 1.6-1.8.8-.3 1.9 0 2.5-.9l.5.9c2 3 2.7 3.3 6.3 2.8a8.3 8.3 0 0 0 4.7-2.6c1.8-1.7 4.1-1.8 6.4-2-.6.3-1 .9-1.6 1-3.3.2-3.5 2.3-3.2 4.8-.5-.4-.9-1.3-1.6-.9-1.6.9-3.3 1.1-5 1.4-1 .2-.6 1-.4 1.8.4 1.9 1 3.8 1.3 5.7 1.5 8.6 2.9 17.3 6.5 25.4 1.4 3.2 2.8 6.5 3 10-.6-.2-1.1-.3-1.6-.6-4-2.4-7.3-5.7-11-8.4l-.2-.4.1.3c3.1 6.1 6.8 11.9 10.3 17.7 1 1.7 2 3.4 1.8 5.5-7.6-.3-15-2.3-22.5-3.8-3-.6-6-.8-8.7-2.1z"/>
        <path fill="#261556" d="M233.4 242.4c-.7 0-1.2-.4-1.2-1.1.3-2.2-.6-4.2-.7-6.3 0-.6-.5-1.5.6-1.6.5 0 1.4 0 1.6.8.6 2.8 1.5 5.5-.3 8.2zm49.3-75.1c-2.3.3-4.6.4-6.4 2.1v-3.8a9 9 0 0 0-.4-4.4h.1-.1l-.2-1.8c2.8 0 5.7.1 8.5-1l1 5.5c.6 3 .6 3-2.5 3.4zm-15.7 1.1-.5-1.2c0-1.2 1.4-1.4 1.5-2.4l.4-.1-.3-.2-.1.3c-1.3.2-2-.4-2.2-1.6-.1-2.1 1.1-3.1 3-3.8 1.9-.8 3.2 0 4.5 1.2.4.3.8 1 .6 1.3-1.2 1.6.2 3.1.2 4.7-1.7 3.3-4.3 4-7.2 1.8z"/>
        <path fill="#ABD0D6" d="M267 168.4c2.8 2.2 5.4 1.5 7.1-1.8 1 .3 1.1-1.4 2.1-1v3.8a8.3 8.3 0 0 1-4.6 2.6c-3.6.5-4.3.3-6.3-2.8l1.6-.8zm-1.2-5.2c.2 1.2 1 1.8 2.2 1.6-.1 1-1.5 1.2-1.5 2.4-1-1.2-.9-2.6-.7-4zm10.1-2h.1-.1z"/>
        <path fill="#42CAE3" d="M282.7 167.3c3.1-.4 3.1-.4 2.6-3.4l-1-5.4c1-1.8 2.5-1 3.9-.5 0 2.4 0 4.8.2 7.2 0 1.1.7 1.4 2 1.2 3-.4 5.8-1.7 9-1.4 0 1.7 1.4 1.4 2.3 1.3 3-.2 4.6 1.2 5.6 3.7-.2 2-1.8 1.7-3 2l-.2-.1c0-.5-.2-.7-.7-.7-.6-1.8-1.3-1.4-2-.2-.6.8-1.4 2.3-2.1 1.5-2.3-2.1-3-.2-4 1.2-.3.3-.9.4-1.3.6-2.7-1.5-3.5-5-6.4-6.1 1.8 2.5 3.4 5 5.7 7.2l.4.5c.3 1.5 2.6 1.3 2.4 3.1l-3.8 3c-.8.8-1.5 1.6-.9 2.8.6 1 1.6 1.4 2.7.9.4.8-1.2 2 .4 2.7l1.3.5c.1 1 .9.8 1.5.9.7 0 1.5 0 1.8.6 1.1 2.6 3.4 2.4 5.6 2.3 4.3-.2 7.8 2.6 12 3.3 1.1.2 1.5 2.1 1.7 3.3l3 19.8c.4 2.2.5 4.4.7 6.6l-8.4 1.5h-4.9c-7.4.9-14.8 1.5-22 2.8h-2.3c0-4.6-1.6-9-2.9-13.3-.1-3.6-1.5-7-2.9-10-3.6-8.2-5-16.8-6.5-25.5-.3-2-.9-3.8-1.3-5.7-.2-.7-.6-1.6.5-1.8 1.6-.3 3.3-.5 4.9-1.4.7-.4 1 .5 1.5 1 0 9.7 2.7 19 3.3 28.8 1.2-.7.7-1.8.7-2.7-.1-5.9-2-11.5-2.3-17.4-.2-3-.1-6-1.6-8.8-.3-2.5 0-4.6 3.2-4.9.5 0 1-.6 1.6-1z"/>
        <path fill="#F75084" d="m291.5 48.8-.1.3-.2-.2.2-.3.1.2zm-1.3-1.5.2-.2.1.4-.1.1-.2-.3zM290 46c.4.3.5.6.1 1-.2.2-.5 0-.7-.3l.7-.7z"/>
        <path fill="#4B7FE1" d="M261.7 39.3V39l.2.1h-.2z"/>
        <path fill="#261556" d="M281.6 216.7c1.3 4.4 3 8.7 3 13.3-.6.2-1.4-.1-1.3 1-.7 0-1.5 0-2.2-.3.2-2.1-.8-3.8-1.8-5.4-3.5-5.9-7.2-11.7-10.3-17.8 3.8 2.8 7.1 6 11 8.5l1.6.7z"/>
        <path fill="#ABD0D6" d="M308.8 227.3h.5-.5z"/>
        <path fill="#F75084" d="M456.7 156.6c2.5 0 3.7 1 3.6 2.9 0 1.7-1.8 3.3-3.6 3.2-1.7 0-3.8-2.2-3.7-3.8.1-2.6 2-2.3 3.7-2.3zm0-2c-1.8 0-3.2-1.5-3.2-3.6-.1-2 1.5-2.6 3-2.6 2-.1 3 1.3 3.3 3 .3 1.4-1.6 3.1-3.1 3.2z"/>
        <path fill="#261556" d="M61.7 348.3c-9.6-.4-18-8.4-17.6-16.8.4-10 6.7-17.7 18.8-17 10 .5 16.9 8.3 16.4 18.8-.4 8.4-8.2 15.3-17.6 15zm4-28.9c-.2-.6-.7-.5-1.2-.5-.3 0-.6 0-.9-.2-1-.5-2-.3-3-.2h-1c-.4-.1-.8-.1-1 .2-1.8.3-3.4.9-4.6 2.2l-1.6 1.8c-1.9 1-3.3 2.6-3.4 4.4-.3 4 0 7.9 2.7 11.1 1.9 4 9.5 7.5 15.5 5.4 4.4-1.6 7.3-4 8-8.6 1-6.9-2.7-12.8-9.2-15.5h-.2z"/>
        <path fill="#F75084" d="M336.2 155.5v.1-.1z"/>
        <path fill="#ABD0D6" d="M304.3 172c1.2-.3 2.8 0 3-2l1.3 3.2c-1.6.2-3.1.3-4.3-1.2z"/>
        <path fill="#261556" d="M299 188a18 18 0 0 1 8.3-3.4c-2.4 1-5 1.8-7.4 3.1l-1 .2z"/>
        <path fill="#261556" d="M297.2 188.8c.4-.5 1-.9 1.8-.9a4 4 0 0 1-1.8 1z"/>
        <path fill="#4B7FE1" d="M296 179c.3-1.8-2-1.6-2.3-3h.8c3 .6 6-1 9-.3.7.2 1.5.3 2.5 1-2.9.9-5.8 1-8.3 2.3h-1.6zm-1.5 9.4c-1.6-.7 0-1.9-.4-2.7 1-.7 2.3-1 3-2.2 1.7-.5 3.4-.7 5 .5-2 1.5-4.4 2-6.5 3-.6.4-1 .7-1.1 1.4z"/>
        <path fill="#ABD0D6" d="M297 183.5c-.6 1.2-1.8 1.5-2.9 2.2-1.1.5-2 .2-2.6-.9-.7-1.2 0-2 .8-2.7l3.8-3h1.6c-1.5 1.4-3.6 2.2-4.6 4.1-.3.4-.7.8-.3 1.3.3.5.8.3 1.3.1l3-1zm-2.5-7.5h-.8c0-.6.2-1.2.3-1.7.4-.2 1-.3 1.3-.6 1-1.4 1.7-3.3 4-1.2.7.8 1.5-.7 2-1.5.8-1.2 1.5-1.6 2 .2-.9 0-1.3.5-1.8 1.3-.8 1.3-1.8 2.5-3.5 1-.8-.8-.8.2-1.2.5-.7.7-1.8 1-2.3 2z"/>
        <path fill="#ABD0D6" d="M302 184c-1.5-1.2-3.2-1-5-.5 2.6-2.3 5.6-1.8 9.2-1.7-1.6 1.2-2.6 2.2-4.2 2.2zm1.5-12.8c.4 0 .7.2.6.7-.4-.1-.6-.3-.6-.7z"/>
        <path fill="#F7F5D9" d="M173.5 325.2a8 8 0 0 1-2 4.7c-3 3.6-6.7 6.2-10.4 9-.8.6-1.7.8-2.6 0-3.7-3-7.6-5.8-10.4-9.7-2.7-3.6-2.7-7.1 0-10 2.7-2.7 7-3 10.4-.2 1.4 1.2 2.1 1 3.4 0 2.3-1.9 5-2.4 7.6-1 2.5 1.3 4 3.5 4 7.2z"/>
        <path fill="#4B7FE1" d="M188.1 224.6c-1.5-.6-2-1.9-2.3-3.2-.2-.7.1-1.2.9-1 1.3.4 2.2 1.2 2.4 2.7 0 .7-.3 1.2-1 1.5z"/>
        <path fill="#ABD0D6" d="M175.3 203.9c0 .7-.2 1.3-.6 1.3-1-.2-1.4-1.2-1.8-2-.2-.6.4-1.5 1-1.4 1.2 0 .9 1.5 1.4 2.1z"/>
        <path fill="#261556" d="m269 207.5-.1-.3.1.4z"/>
        <path fill="#ABD0D6" d="m268 164.8.1-.3.3.2-.4.1z"/>
        <path fill="#4B7FE1" d="M277.9 173.2c1.5 2.7 1.4 5.8 1.6 8.8.4 5.9 2.2 11.5 2.3 17.4 0 .9.5 2-.6 2.7-.7-9.7-3.4-19.1-3.4-28.9z"/>
        <path fill="#261556" d="m294 174.3-.3 1.7-.4-.6c-2.3-2.1-4-4.7-5.7-7.2 2.9 1.2 3.7 4.6 6.4 6z"/>
        <path fill="#42CAE3" d="M54 321a7.7 7.7 0 0 1 4.5-2.3c.4.1.8 0 1-.2h1.1c1 .6 2 .4 3 .2l1 .2c.2.5.7.6 1.2.5l.2.1c.4 1.8 1.5 3.4 1.5 5.3a34 34 0 0 1-7.7 10c-.7.6-1.5 1.2-1.8 2.2-1.3 0-2.6.2-3.8-.4-1.8-1-2.6-.3-2.5 1.6-2.7-3.2-3-7.2-2.8-11a5.9 5.9 0 0 1 3.5-4.5c0 1.2-.2 2.3 0 3.4.1 1.8 1.2 2.9 3 3 1.7 0 3.7-1.9 4-4 .4-1.5-.4-2.6-1.9-3.2l-3.5-1z"/>
        <path fill="#4B7FE1" d="M51.7 338.2c0-1.9.7-2.5 2.5-1.6 1.2.6 2.5.4 3.8.4.7 2 3.3 3.5 6 3.5.3 1.8 1.6 2 3 1.7 3.3-.8 4.8-3.8 2.2-6.7.4 0 .8-.1 1-.6 1-2.4-.6-8.3-2.7-10.1 0-2-1.1-3.5-1.5-5.3a14.2 14.2 0 0 1 9.2 15.5c-.7 4.5-3.6 7-8 8.6-6 2-13.6-1.3-15.5-5.4z"/>
        <path fill="#F7F5D9" d="M54 321c1.2.3 2.4.5 3.5 1 1.5.5 2.3 1.6 2 3.2-.4 2-2.4 4-4.1 3.9-1.8-.1-2.9-1.2-3-3-.2-1 0-2.2 0-3.4L54 321z"/>
        <path fill="#4B7FE1" d="M63.6 318.7c-1 .2-2 .4-3-.2 1-.1 2-.3 3 .2zm2.2.7c-.5 0-1 0-1.3-.5.5 0 1 0 1.3.5zm-6.2-.9a1 1 0 0 1-1 .2c.2-.3.6-.3 1-.2z"/>
        <path fill="#261556" d="M64 340.5c-2.7 0-5.3-1.5-6-3.5.3-1 1-1.6 1.8-2.2a34 34 0 0 0 7.7-10c2.1 1.8 3.7 7.7 2.7 10.1-.2.5-.6.5-1 .6-2.1 1.3-3.1 3.7-5.1 5z"/>
        <path fill="#F7F5D9" d="M64 340.5c2-1.3 3-3.7 5.2-5 2.6 3 1 6-2.3 6.7-1.3.3-2.6.1-2.8-1.7z"/>
      </g>
    </g>
  </switch>
</svg>
