<svg xmlns="http://www.w3.org/2000/svg" xml:space="preserve" fill="currentcolor" fill-rule="evenodd" clip-rule="evenodd" image-rendering="optimizeQuality" shape-rendering="geometricPrecision" text-rendering="geometricPrecision" viewBox="0 0 60.39 60.45">
  <path d="M16.83 57.97zm20.9-45.1c0 1.4.95 1.06 3.18 1.06 1.26 0 .94-1.77.12-1.77-1.24 0-3.3-.31-3.3.71zm-19.37 4.6c0 1.3 1.84.95 3.67.95 1.28 0 1.28-1.89 0-1.89-1.83 0-3.67-.35-3.67.94zM9.04 50.18c0 1.67.91 1.91 2.24 2.47 1.2.51.68 1.3.24 1.3-1.62 0-.79-.58-1.67-.67-.85-.09-1.72 1.39.19 2.27.76.35.18.07.52.66a.9.9 0 0 0 1.56 0c.39-.68-.13-.27.64-.78 1.37-.89 1.41-3.22-.08-4.17-.49-.32-1.75-.53-1.75-1.08 0-.82 1.62-.03 1.87-.04.3-.01.84-.33.84-.91 0-.81-.53-.82-1.05-1.07-.7-.33-.12 0-.47-.59a.9.9 0 0 0-1.56-.01c-.33.63.12.43-.57.86-.52.32-.95.9-.95 1.76zm9.32-37.08c0 .51.47.83.71.83h16.18c.94 0 .94-1.77 0-1.77H19.07c-.38 0-.71.51-.71.94zm6.38 4.37c0 .61.49.95 1.06.95h15c1.26 0 1.26-1.89 0-1.89h-15c-.57 0-1.06.33-1.06.94zm10.15 19.01c0-.61 1.17-.35 2.84-.35.27 0 .35.08.35.35v2.83h-3.19v-2.83zm-1.89.35c0 4.62.3 4.37 4.84 4.37.95 0 2.01-.74 2.01-1.65 0-1.78.3-3.8-.48-4.6l-.46-.36c-.72-.42-2.77-.23-4.02-.23a1.7 1.7 0 0 0-1.42.7c-.32.42-.47 1-.47 1.77zm17.95-.35c0-.27.08-.35.35-.35h2.84v3.18h-3.19v-2.83zm-1.77-.47c0 5.25-.42 5.19 4.6 5.19 2.7 0 2.25-2.58 2.25-4.6 0-2.84-2.46-2.24-5.2-2.24-.74 0-1.65.91-1.65 1.65zM37.73 54.78h-2.84v-3.07h3.19v2.72c0 .27-.08.35-.35.35zM33 52.18c0 1.15-.15 2.94.42 3.72.84 1.13 2.73.77 4.78.77.74 0 1.65-.92 1.65-1.65v-3.55c0-.5-.38-.95-.67-1.21-.74-.66-2.86-.44-4.17-.44-1.27 0-2.01 1.07-2.01 2.36zm1.89-8.03h3.19v3.07h-3.19v-3.07zm-1.89.48c0 1.17-.17 2.95.43 3.7.93 1.15 2.13.78 4.53.78.93 0 1.89-.78 1.89-1.65v-3.54c0-2.14-3.47-1.65-4.84-1.65-1.26 0-2.01 1.04-2.01 2.36zm9.92-8.15c0-.67 1.12-.24 1.65-.24.6 0 .73-.11 1.42-.11v3.18h-3.07v-2.83zm-1.89-.12c0 4.75-.29 4.84 4.61 4.84 2.83 0 2.24-2.46 2.24-5.19 0-.74-.92-1.65-1.65-1.65-2.41 0-5.2-.55-5.2 2zm1.89 15.35h3.07v3.07h-3.07v-3.07zm-1.89.12c0 5.14-.14 4.84 4.96 4.84 2.39 0 1.89-2.84 1.89-4.96 0-2.36-2.95-1.89-4.84-1.89a2 2 0 0 0-2.01 2.01zm1.89-7.68h3.07v3.07h-3.07v-3.07zm-1.89.12c0 5.15-.14 4.84 4.96 4.84 2.39 0 1.89-2.83 1.89-4.96 0-2.35-2.95-1.88-4.84-1.88-1.12 0-2.01.88-2.01 2zm-19.36-22.9c-2.8.65-2.64 3.8-1.51 4.93 1.47 1.47 4.11.93 4.11 3.33 0 1.53-1.17 1.54-2.13 1.54-1.41 0-1.48-1.18-2.24-1.18-.54 0-.86.66-.76 1.11.28 1.25 2.31 1.52 2.47 1.79.13.22.01.53.17.88.22.46 1.66 1.21 1.66-1.07.55-.01 1.12-.3 1.44-.56.33-.27.66-.74.85-1.17a4.3 4.3 0 0 0-.12-3.27c-1.26-2.32-4.53-1.51-4.53-3.62 0-.9.87-1.29 1.77-1.29.94 0 1.59.59 2.13.59.97 0 1.34-2.13-1.54-2.13 0-.49.07-1.53-.82-1.53-.95 0-.95.69-.95 1.65zm29.28 32.35V45.1c0-1.23.31-.95 2.71-.95.28 0 .48.2.48.48v9.56c0 .84-1.51.59-2.6.59-.46 0-.59-.58-.59-1.06zm-1.77-9.21v9.8c0 1.21 1.1 2.36 2.6 2.36h1.77c1.45 0 2.48-1.35 2.48-2.83v-8.86c0-3.06-2.63-2.71-4.49-2.71-1.24 0-2.36 1-2.36 2.24zM33 27.27c0 1.6-.16 3.24.69 4.39 1.14 1.54 3.35 1.16 5.57 1.16.57 0 .95-.37.95-.94 0-2.29-5.32.51-5.32-2.13 0-2.11-.44-4.37 1.18-4.37h16.65c1.77 0 1.3 1.6 1.3 4.49 0 1.2-1.16 1.06-2.36 1.06h-6.85c-1.11 0-2.6-.15-2.6.95 0 .57.38.94.95.94h9.91c1.5 0 2.84-1.51 2.84-3.07v-3.07a3.11 3.11 0 0 0-3.19-3.19H36.43c-2.29 0-3.43 1.43-3.43 3.78zm-16.17 30.7c.25-.38.69-.81 1.01-1.23 1.27-1.68-.65-1.25 6.43-1.25 1.36 0 1.86 2.45-.11 2.49l-7.33-.01zM5.38 57.5a3.53 3.53 0 0 1-1.65-1.19c.63-.14.62-.24 1.01.28.27.35.45.54.64.91zm25.03-4.73V27.39c0-3.21 2.49-5.79 5.19-5.79h17.71c.77 0 1.5.28 2.05.55a5.43 5.43 0 0 1 3.15 4.89v26.09c0 1.8-.72 2.89-1.86 4.04-1.05 1.06-2.46 1.51-4.52 1.51H36.78c-3.68 0-6.37-2.11-6.37-5.91zm-28.46.24h1.42c0 .69.11.88.24 1.42h-1.3c-.12-.51-.28-.84-.36-1.42zm22.44.47h-5.08l.12-2.48c1.37 0 4.98-.23 5.62.29.77.62.43 2.19-.66 2.19zm-6.85-1.42c-.13.73.12 1.12-.55 2.53a5.92 5.92 0 0 1-1.71 2.18c-.21.17-.24.22-.46.37a6.4 6.4 0 0 1-7.15-.16 6.23 6.23 0 0 1-.86-9.39l.11-.12a6.24 6.24 0 0 1 10.57 3.22l.1 1.06c0 .43.01-.04-.05.31zm-14.29-.94H1.84c.18-.37.15-.89.35-1.3h1.3c-.08.35-.21.93-.24 1.3zm14.17-4.6 6.74-.01c1.95.03 1.5 2.49.11 2.49-7.05 0-4.66.48-6.38-1.89-.18-.26-.3-.34-.47-.59zm-13.1 1.41H3.25a6.5 6.5 0 0 1 2.25-1.77c-.15.57-.95.89-1.18 1.77zm4.84-4.48c0-.92.33-1.54 1.53-1.54h13.22c2.09 0 2.02 2.6.12 2.6h-8.97c-.67 0-1.37-.5-2.75-.68-.56-.07-1.16-.03-1.74-.03-.58 0-1.41.18-1.41-.35zm0-4.61c0-.87.42-1.41 1.41-1.41h13.46c1.9 0 1.97 2.59-.12 2.59H10.69c-.78 0-1.53-.41-1.53-1.18zm37.42-25.26v6.14H35.96c-2.13 0-3.84.96-4.99 1.97-.96.85-2.33 3.02-2.33 4.76v23.96c-2 0-1.4.14-2.13-.35.55-.83.95-1.1.95-2.36 0-.94-.39-1.75-.95-2.13 1.42-2.12 1.17-2.62.12-4.6.36-.69.83-1.18.83-2.25 0-2.31-1.84-3.3-4.14-3.3h-9.8V5.43c0-2.09 1.77-3.54 4.14-3.54h21.01v7.32c0 .57.34 1.06.95 1.06h6.96c0 .72.09 1.14.12 1.66.02.48-.12.97-.12 1.65zm-5.9-10.04c.46.31.8.74 1.21 1.15l3.39 3.69h-4.6V3.54zM11.52 5.78v29.64c-1.45 0-2.2.08-3.06.72-1.6 1.19-1.75 3.23-.37 4.83-.35.52-.55.42-.83 1.53-.36 1.43.39 1.26-.88 1.47-6.91 1.15-9.15 11.49-1.95 15.18.69.35 2.04.82 3.07.82h17c1.45 0 2.96-1.38 2.96-3.42 0-.98-.57-1.55-.95-2.12.5-.34.93-1.2.95-2.01h1.18c0 2.53.31 4.03 2.15 5.87a7.02 7.02 0 0 0 4.81 2.16h17.83c3.82 0 6.96-3.61 6.96-7.68V27.51c0-2.4-.87-4.25-2.09-5.46-2.86-2.87-5.48-2.33-9.71-2.33v-8.74c0-2.76-2.33-4.37-4.22-6.52-.41-.46-.86-.86-1.3-1.3l-1.3-1.42A5.52 5.52 0 0 0 38.08 0H16.71c-2.56 0-5.19 2.46-5.19 5.78z"/>
</svg>
