<svg xmlns="http://www.w3.org/2000/svg" xml:space="preserve" fill-rule="evenodd" clip-rule="evenodd" image-rendering="optimizeQuality" shape-rendering="geometricPrecision" text-rendering="geometricPrecision" viewBox="0 0 241 58.6">
  <circle cx="212.4" cy="28.7" r="28.7" fill="#CCC"/>
  <path fill="#fff" d="M204.3 38.4h-5.8c-1.6 0-2.3-.7-2.3-2.3V21.7c0-1.6.7-2.3 2.3-2.3h6.2c2 0 4 .2 5.3 1.8.7.8 1 1.8 1 3 0 1.8-.9 3.2-2.8 4 2.5.9 3.7 2.4 3.7 4.7 0 2-1 4-3 4.7-1.3.6-3 .7-4.6.7zM204 30h-4v5.5h4.2c2.6 0 3.9-1 3.9-2.8 0-2.2-2-2.7-4-2.7zm-4-7.6v4.8h3.6c1.5 0 2.7 0 3.4-1.3.5-1 .4-2.6-.7-3-.7-.4-1.7-.5-3.1-.5H200zm22.6 8.6h-3.5v5.4c0 2.6-2.4 2.7-3.3 1.7-.4-.4-.5-1-.5-1.7V21.8c0-1.7.7-2.3 2.4-2.3h4.9c2.2 0 4 .1 5.4 1.4 1.2 1 1.7 2.6 1.7 4.3 0 4.2-3 5.8-7.1 5.8zm-1-8.6h-2.5V28h2.6c2.1 0 4.1-.4 4.1-2.9 0-.8-.2-1.5-.7-2-.6-.6-1.7-.8-3.4-.8zm.8-5.2c-.5-1.3-1-2.4-2.6-2.5 1.5-.4 2.2-1.2 2.5-2.6.5 1.3 1 2.3 2.6 2.5-1.5.3-2.2 1.2-2.5 2.6zm7 3.6c-.3-1-.7-1.8-2-1.9 1.2-.3 1.8-.9 2-2 .3 1 .8 1.8 2 2-1.2.2-1.7.9-2 2zM232 15c-.2-.7-.5-1.3-1.4-1.3.8-.3 1.2-.7 1.4-1.4.2.7.5 1.2 1.3 1.3-.7.2-1.1.7-1.3 1.4z"/>
  <path fill-rule="nonzero" d="M167 45.6V19.4c-4.8 3.7-8.1 5.6-9.8 5.6a3 3 0 0 1-2.2-1 3 3 0 0 1-1-2.2c0-1 .4-1.7 1-2.2.6-.4 1.7-1 3.3-1.7a24 24 0 0 0 5.6-3.5 24 24 0 0 0 3.7-4c1-1.6 1.8-2.5 2-2.8.4-.4 1-.6 2-.6s1.8.4 2.4 1.2c.6.8 1 1.9 1 3.3v33c0 3.9-1.4 5.8-4 5.8-1.2 0-2.2-.4-2.9-1.2-.7-.8-1-2-1-3.5z"/>
  <circle cx="57.6" cy="29.3" r="29.3" fill="#CCC"/>
  <path fill="#fff" d="M61.7 43.4A13 13 0 0 1 49 35c-.4-1.1-5.4 1-5.4-2.3 0-2.3 2.7-2 4.3-2V28c-1.5 0-4.6.4-4.3-2.1.3-3.2 5-1 5.4-2.1C53.4 13 66.7 14.3 66.7 18c0 1.4-1.2 2.3-3 1.7-4.1-1.4-8.3.5-10.5 4.3l8.5.1c2.4.3 2.3 3.9-.4 3.9H52v2.8h9.8c2.4.4 2.3 4-.3 4h-8.2c3 4 5.1 5.5 10.4 4.4 2.3-.5 4.1 3.2 0 4l-2 .3z"/>
  <path fill-rule="nonzero" d="M13 46.3V20c-5 3.8-8.2 5.7-10 5.7a3 3 0 0 1-2-1 3 3 0 0 1-1-2.3c0-1 .3-1.7 1-2.1.5-.5 1.6-1 3.2-1.8A24 24 0 0 0 9.8 15c1.4-1.2 2.6-2.5 3.7-4l2-2.8c.4-.3 1-.5 2-.5s1.8.4 2.4 1.2c.6.7 1 1.8 1 3.2v33c0 4-1.4 5.9-4 5.9-1.2 0-2.2-.4-2.9-1.2-.7-.8-1-2-1-3.5zM135.3 39h-29.6v-7.6h29.6V39zm0-12.8h-29.6v-7.6h29.6v7.6z"/>
</svg>
