<svg xmlns="http://www.w3.org/2000/svg" xml:space="preserve" fill-rule="evenodd" clip-rule="evenodd" image-rendering="optimizeQuality" shape-rendering="geometricPrecision" text-rendering="geometricPrecision" viewBox="0 0 215.6 215.6">
  <circle cx="107.8" cy="107.8" r="107.8" fill="currentcolor"/>
  <path fill="#fff" d="M77.5 144.4H55.8c-6.2 0-8.8-2.6-8.8-8.8V82c0-6.1 2.6-8.8 8.8-8.8h23c8 0 15 .8 20 6.9 2.7 3 4 7 4 11 0 7.1-3.5 12.3-10.6 15.6 9.3 3 14 8.8 14 17.4a19 19 0 0 1-11.3 17.8 46.4 46.4 0 0 1-17.4 2.5zm-1-31.6h-15v20.8H77c9.7 0 14.6-3.6 14.6-10.6 0-8.3-7-10.2-15.1-10.2zM61.5 84v18.3h13.2c5.8 0 10.3-.4 12.8-4.9 2.2-3.8 1.6-9.7-2.6-11.7A29.4 29.4 0 0 0 73.2 84H61.5zm84.8 32.6H133v20.1c0 10-9 10.4-12.5 6.6a9.7 9.7 0 0 1-2-6.5V82c0-6.3 2.9-8.8 9.2-8.8h18.5c8.1 0 15 .7 20.1 5.3 4.6 4 6.5 9.8 6.5 16 0 16.1-10.9 22.2-26.6 22.2zM142.8 84H133v21.7h9.7c8 0 15.5-1.7 15.5-11 0-3-1-5.6-2.8-7.6-2-2-6.3-3.1-12.7-3.1zm2.6-19.5c-1.6-4.8-3.4-8.9-9.6-9.3 5.4-1.6 8.3-4.4 9.4-9.6 1.6 4.7 4 8.4 9.5 9.3-5.5 1.2-8 4.5-9.3 9.6zM172 78.3c-1.2-3.7-2.6-6.8-7.4-7.1 4.2-1.2 6.4-3.4 7.2-7.4 1.3 3.6 3 6.4 7.4 7.2-4.2.9-6.2 3.4-7.2 7.3zm9.3-22c-.8-2.5-1.8-4.7-5.2-5 3-.8 4.5-2.3 5.1-5 .9 2.5 2.1 4.4 5.1 5-3 .6-4.3 2.4-5 5z"/>
</svg>
