<svg xmlns="http://www.w3.org/2000/svg" xml:space="preserve" fill-rule="evenodd" clip-rule="evenodd" image-rendering="optimizeQuality" shape-rendering="geometricPrecision" text-rendering="geometricPrecision" viewBox="0 0 75.6 75.6">
  <path fill="currentColor" d="M75.6 37.8a37.8 37.8 0 1 1-75.6 0 37.8 37.8 0 0 1 75.6 0z"/>
  <path fill="#FBF9F4" d="M67.2 38.5c0 16-13 29.1-29 29.2A29.7 29.7 0 0 1 9 38.3c.1-16 13.4-29 29.4-29 16 0 29 13 29 29.2zm-4.6-3.9v-.5A25 25 0 0 0 42.3 14c-1.6-.2-2 .4-2 1.8-.2 1-.9 1.8-2.1 1.8-1.3 0-2-.7-2-1.9-.1-1.7-1-1.9-2.4-1.6a24.8 24.8 0 0 0-20 19.8c-.2 1.3-.4 2.4 1.5 2.3 1.3 0 2.2.8 2.2 2.1s-.8 2-2.1 2.1c-1.7.1-1.9 1-1.6 2.5a25 25 0 0 0 20.1 20c1.2.2 2 .1 2.1-1.4.1-1.3.6-2.4 2.1-2.5 1.7 0 2.2 1.2 2.2 2.7 0 1.1.6 1.4 1.7 1.3a24.8 24.8 0 0 0 20.6-20.7c.2-1.1-.2-1.8-1.4-1.9-1.3 0-2.2-.6-2.3-2 0-1.4 1-2.2 2.3-2.2 1.2 0 1.6-.5 1.4-1.6zM54 25.4c-.1 1-.8 1.6-1.4 2.2l-9.4 9.8c-1.1 1.2-2.3 2.3-3 4-.7 1.6-2.5 2-3.5.7-3-4-7.4-6-11-9.2l-.5-.3c-.7-.7-1.3-1.5-.5-2.5.7-1 1.6-.7 2.5 0 2.9 2.1 5.8 4.2 8.6 6.5 1.6 1.3 2.6 1.3 4-.3 3.6-4 7.4-7.7 11-11.6.7-.6 1.4-1.2 2.3-.7.6.3.9.8.9 1.4z"/>
</svg>
