<svg xmlns="http://www.w3.org/2000/svg" xml:space="preserve" fill-rule="evenodd" clip-rule="evenodd" image-rendering="optimizeQuality" shape-rendering="geometricPrecision" text-rendering="geometricPrecision" viewBox="0 0 6.7 6.7">
  <circle cx="3.3" cy="3.3" r="3.2" fill="#fff"/>
  <path fill="currentcolor" d="M3.2 6.7h-.4A3.3 3.3 0 0 1 .2 2.2a3.3 3.3 0 0 1 4-2.2 3.3 3.3 0 0 1 2.4 3c.1.6 0 1.2-.2 1.8a3.3 3.3 0 0 1-2.8 2h-.4zm.1-.5h.1A2.8 2.8 0 0 0 5.7 5c0-.4-.2-.7-.3-1a1 1 0 0 0-.7-.4 1.8 1.8 0 0 1-1.6.6c-.4-.1-.8-.3-1-.6H2c-.3 0-.5.1-.6.3L1 5l.4.4c.5.5 1.2.8 2 .8zM2 2.4c0 .7.7 1.5 1.5 1.4.7 0 1.4-.6 1.4-1.4C4.8 1.6 4 .9 3.3 1 2.6 1 2 1.6 2 2.4z"/>
</svg>
