<svg xmlns="http://www.w3.org/2000/svg" xml:space="preserve" fill-rule="evenodd" clip-rule="evenodd" image-rendering="optimizeQuality" shape-rendering="geometricPrecision" text-rendering="geometricPrecision" viewBox="0 0 45.9 46.1">
  <path fill="#25D366" fill-rule="nonzero" d="M31.8 1.7a22.9 22.9 0 0 1-8.8 44c-5.7 0-9.8-2.3-10-2.3L3.5 46c-2 .5-3.8-1.3-3.3-3.3l2.6-9.4C2.7 33 .2 29 .2 22.8a22.9 22.9 0 0 1 31.6-21z"/>
  <path fill="#fff" fill-rule="nonzero" d="M37.3 8.6A20.2 20.2 0 0 0 5.6 33l-3 10.5 10.8-2.8A20.2 20.2 0 0 0 43.2 23c0-5.4-2.1-10.5-6-14.3z"/>
  <path fill="#25D366" d="M23 4.8a18.1 18.1 0 1 1 0 36.3c-3.2 0-6-3.2-9-2.4l-9 2.5 2.3-9.5C8 28.8 5 26.1 5 23 5 13 13 4.8 23 4.8z"/>
  <path fill="#fff" fill-rule="nonzero" d="M37.2 8.6C21-7.8-6.3 12.5 5.5 33L2.6 43.4C22.8 38 7.2 42.2 23 43c16.2 1 27.8-21 14.3-34.4zm-14.3 31c-3.4 0-6.2-1-9.1-2.7l-6.3 1.7L9 32.4c-11.2-18 12-35 25.7-21.4a16.8 16.8 0 0 1-11.9 28.6zm9.2-12.5c-5-2.6-3.6-2.3-6.1.5-1.4 1.6-9.5-5.1-7.8-6.8 2.1-2.1 1.4-2.2-.3-6.4-1.3-3.1-8.8 1.6-3.1 9.2 12 16.1 22 5.8 17.3 3.5zm0 0z"/>
</svg>
