<svg xmlns="http://www.w3.org/2000/svg" version="1.1" xmlns:xlink="http://www.w3.org/1999/xlink" xmlns:svgjs="http://svgjs.dev/svgjs" width="28.9" height="28.9"><svg xmlns="http://www.w3.org/2000/svg" xml:space="preserve" fill-rule="evenodd" clip-rule="evenodd" image-rendering="optimizeQuality" shape-rendering="geometricPrecision" text-rendering="geometricPrecision" viewBox="0 0 28.9 28.9">
  <path fill="#C6AE66" d="M28.9 14.4c0 6.7-4.5 12.3-10.6 14l1.1-4.3 4.6-1.3-4.6-1.2-1.2-4.5-1.3 4.5-4.5 1.2 4.5 1.3 1.2 4.3A14.4 14.4 0 0 1 .3 11.6L7 13.4l2 7.7 2.2-7.7 7.7-2.1L11.3 9 9 1.4 7 9 .4 10.9A14.4 14.4 0 0 1 26 5.8l-.7 2.6-2.8.8 2.8.8.7 2.8.8-2.8 1.3-.4c.5 1.5.8 3.2.8 4.8zM26 6c.6.9 1.2 1.8 1.6 2.8l-.9-.3L26 6z"></path>
</svg><style>@media (prefers-color-scheme: light) { :root { filter: none; } }
@media (prefers-color-scheme: dark) { :root { filter: none; } }
</style></svg>