<svg xmlns="http://www.w3.org/2000/svg" xml:space="preserve" fill-rule="evenodd" clip-rule="evenodd" image-rendering="optimizeQuality" shape-rendering="geometricPrecision" text-rendering="geometricPrecision" viewBox="0 0 61.2 54.7">
  <g fill-rule="nonzero">
    <path fill="#E6E6E6" d="M10.9 50.1h-5 5zm-6.6 0h-3 3zm19.8.6h-3v-.1h3zm15.3.8h-6.6 6.6zm-8 0h-1 1zm29.8-.8H46.9v-.1h14.3z"/>
    <path fill="#DFDFDF" d="M32.8 48h-3.4V34.7h3.4z"/>
    <path fill="#F9F9F9" d="M32.1 48h.7v-1.8h-1.4z"/>
    <path fill="#DFDFDF" d="M18 48h-3.4V34.7H18z"/>
    <path fill="#F9F9F9" d="M32.8 46.9H17.4V34.7h15.4z"/>
    <path fill="#DFDFDF" d="M32.2 35.3v3.2H18v-3.2h14.2zm0 0H18v3.3h14.4v-3.4z"/>
    <path fill="#F9F9F9" d="M18.1 48h-.7v-1.8h1.4z"/>
    <path fill="#E6E6E6" d="M24.8 36.9a.3.3 0 1 0 .6 0 .3.3 0 0 0-.6 0z"/>
    <path fill="#DFDFDF" d="M32.2 39.2v3.2H18v-3.2h14.2zm0 0H18v3.3h14.4V39z"/>
    <path fill="#E6E6E6" d="M24.8 40.8a.3.3 0 1 0 .6 0 .3.3 0 0 0-.6 0z"/>
    <path fill="#DFDFDF" d="M32.2 43v3.3H18v-3.2h14.2zm0 0H18v3.4h14.4V43z"/>
    <path fill="#E6E6E6" d="M24.8 44.7a.3.3 0 1 0 .6 0 .3.3 0 0 0-.6 0z"/>
    <path fill="#DFDFDF" d="M15.9 48h-3.3V26.9h3.3z"/>
    <path fill="#F9F9F9" d="M15.3 48h.6v-1.8h-1.3z"/>
    <path fill="#DFDFDF" d="M3.4 48H0V26.9h3.4z"/>
    <path fill="#F9F9F9" d="M15.9 46.9H2.8v-20h13.1z"/>
    <path fill="#DFDFDF" d="M15.4 27.5V32h-12v-4.5h12zm0 0h-12V32h12v-4.7zm0 5.1v12H9.7v-12h5.7zm0-.1H9.7v12.1h5.9V32.5zm-6.3.1v12H3.4v-12H9zm0-.1H3.4v12.1h5.9V32.5z"/>
    <path fill="#F9F9F9" d="M3.4 48h-.6v-1.8h1.3z"/>
    <path fill="#E6E6E6" d="M9 29.7a.3.3 0 1 0 .7 0 .3.3 0 0 0-.7 0zm1.3 8.6a.3.3 0 1 0 .6 0 .3.3 0 0 0-.6 0zm-2.5 0a.3.3 0 1 0 .7 0 .3.3 0 0 0-.7 0z"/>
    <path fill="#DFDFDF" d="M7.4 21H6s.3 1.3.3 2.1-1.1 3.8.4 3.8c1.6 0 .5-3 .5-3.8l.2-2z"/>
    <path fill="#F4F4F4" d="M2 24.1v1c0 1 .9 1.8 1.9 1.8h1c1 0 1.8-.8 1.8-1.8v-1H2z"/>
    <path fill="#DFDFDF" d="M21.8 32.7c0 1 1.2 2 2.6 2h1.4c1.4 0 2.6-1 2.6-2h-6.6zm35-1.5a12.4 12.4 0 0 0-4.2 7.3v-5.4c.3-.4.7-1.5 1-2.3l2.6-6c1.3-3.1 2.7-7 2.3-6.6-.8.6-3.9 6.3-4.2 7.1a23 23 0 0 0-1.6 6.9 3043.3 3043.3 0 0 1 .1-10l.4-.5c.7-1 1-1.9 1.6-3.4 1-2.2 1.8-6.1 1.6-6-1 .9-1.8 2.6-2.9 4.9-1 2.2-.7 3.5-1 5.4v3.8a9.4 9.4 0 0 0-1.7-4.7 13.5 13.5 0 0 0-3-3.2c-.9-.5 1.3 3.3 2.4 5 1 1.4 1.8 2.7 2.3 4v9.2c-.3-1.4-.7-3-1.2-4.2-.7-1.4-1.6-3.6-2.4-4.4-.2-.1.8 4.1 1.4 5.3l1.5 2.8.6 1v8.5h.3v-4.9c.3-1.4 1.3-3 2-4.4.8-1.6 3-5.9 2.1-5.2z"/>
    <path fill="#EFEFEF" d="M55 48h-4.8l-.4-4.7h5.5z"/>
    <path fill="#F4F4F4" d="M55.7 43.9h-6.3l-.1-1.6h6.6z"/>
    <path fill="#DFDFDF" d="M10.8 10.2H2.3V.8h8.5z"/>
    <path fill="#F4F4F4" d="M11.8 10.2H2.9V.8h8.9z"/>
    <path fill="#fff" d="M3.7 9.4V1.5H11v7.9z"/>
    <path fill="#F4F4F4" d="M5.4 7.5V3.4h3.8v4.1z"/>
    <path fill="#DFDFDF" d="M54.6 10.6h-8V1.9h8z"/>
    <path fill="#F4F4F4" d="M55.5 10.6h-8.3V1.9h8.3z"/>
    <path fill="#fff" d="M47.9 9.9V2.5h6.9v7.4z"/>
    <path fill="#F4F4F4" d="M53.5 6.2a2.1 2.1 0 1 1-4.3 0 2.1 2.1 0 0 1 4.3 0z"/>
    <path fill="#DFDFDF" d="M19.8 13.4h-6.4v-7h6.4z"/>
    <path fill="#F4F4F4" d="M20.4 13.4h-6.5v-7h6.5z"/>
    <path fill="#fff" d="M14.4 12.8V6.9h5.5v5.9z"/>
    <path fill="#F4F4F4" d="M17.2 8.4 15.7 11h3z"/>
    <path fill="#F4F4F4" d="M12.4 25.6c9 9.2 20.7 15.6 31.7 5.3 5.6-5.3 13-19.7 5.7-26.3-10.1-9.1-16 5.7-23.5 7.8-5.2 1.3-9.5-6.6-15.7-1.3-5 4.2-2 10.7 1.8 14.5zM59.8 53c0 .9-13.3 1.7-29.7 1.7S.4 53.9.4 52.9s13.3-1.7 29.7-1.7 29.7.8 29.7 1.7z"/>
    <path fill="#E4897B" d="m45.3 14.2-1.5-.6s-2 3.7-2.6 3.8c-.8.3-2.4 1-3.4 1.1l-.3.8a8 8 0 0 0 4.7-.6c1.4-1 3-4.5 3-4.5z"/>
    <path fill="#3F7BFF" d="M45.8 13.4c.2 1-1.3 3.1-1.3 3.1l-2-1 .8-1.8c.8-1.5 2.1-1.5 2.5-.3z"/>
    <path fill-opacity=".2" d="M45.8 13.4c.2 1-1.3 3.1-1.3 3.1l-2-1 .8-1.8c.8-1.5 2.1-1.5 2.5-.3z"/>
    <path fill-opacity=".2" d="m43.3 15.9.8.4.1-2.4c-.4.3-.8 1.4-.9 2z"/>
    <path fill="#3F7BFF" d="M44.4 12.6s-1.5 3.5-.6 10H50c0-1-.3-5.6.9-10 0 0-1-.3-2-.3h-2.7c-.9 0-1.8.3-1.8.3z"/>
    <path fill-opacity=".2" d="M44.4 12.6s-1.5 3.5-.6 10H50c0-1-.3-5.6.9-10 0 0-1-.3-2-.3h-2.7c-.9 0-1.8.3-1.8.3z"/>
    <path fill="#E8EBF0" d="M43 53c0 .2 2.3.4 5.2.4 3 0 5.3-.2 5.3-.3 0-.2-2.3-.3-5.2-.3-3 0-5.3.1-5.3.3z"/>
    <path fill="#E4897B" d="m48.2 51.4-1.1.4-.9-2.4 1.1-.5zm3.8.5h-1.2l-.4-2.7h1.2z"/>
    <path fill="#263138" d="M50.8 51.8H52l.2 1c0 .2 0 .3-.2.3h-2.7c-.5 0-.6-.5-.4-.6a3 3 0 0 0 1.6-.7h.2zm-3.8-.4 1.2-.4.5 1v.2l-1.4.4c-.4 0-.8.3-1.1.4H45c-.5 0-.6-.4-.4-.5l.8-.1a4 4 0 0 0 1.3-.9l.2-.1z"/>
    <path fill="#E4897B" d="m38 18.5-1.2-.5-.6 1.4s.8.1 1.6 0l.2-.9z"/>
    <path fill="#E4897B" d="M35.8 17.9v1l.4.5.6-1.4z"/>
    <path fill="#CF6E64" d="m46.2 49.4.5 1.2 1.1-.4-.5-1.3zm5.4-.2h-1.2l.2 1.4h1.2z"/>
    <path fill-opacity=".2" d="M43.6 20.8v.9l4.7-1.5c.7-.2 1.3-.7 1.7-1.3a37.8 37.8 0 0 1 .2-2.7l-6.6 4.6z"/>
    <path fill="#fff" d="M45 15.8c0-.8.6-1.4 1.2-1.4v.2c-.5 0-1 .5-1.1 1.2zm.9 1.4V17c.5 0 1-.5 1-1.2h.2c0 .8-.6 1.4-1.2 1.4z"/>
    <path fill="#E4897B" d="M48.8 9.3c-.3.9-.5 2.4 0 3 0 0-.3.8-2 .8-1.3 0-.6-.8-.6-.8 1-.2 1-1 .9-1.6l1.7-1.4z"/>
    <path fill="#CF6E64" d="m48 9.9-1 .8.1.5c.3.3 1-.5 1-.9V10zm-2.6-.6c.1.3.4.4.6.5.4 0 .6-.3.5-.6-.1-.3-.4-.7-.8-.6-.4 0-.5.4-.3.7z"/>
    <path fill="#263138" d="M46 6.6c-.6.3-.8 2.6 0 2.9.6.3 1-3.4 0-2.9z"/>
    <path fill="#E4897B" d="M49 8c-.2 1.2-.2 1.9-.8 2.5-1 .8-2.3.3-2.5-.8-.2-1 0-2.7 1.2-3.2 1.1-.4 2.2.4 2 1.6z"/>
    <path fill="#263138" d="M47 7.2c.9-.2 1.5-.4 1.3.4-.3.9-.6 1.8-.2 1.9.3 0 1.6-.6 1.4-1.1-.1-.5.5-.6.6-.9.4-.9-.7-.7-.5-1.3.2-.5-1-1.4-1.6-1-1 .7-2.7.7-1.8-.4.7-.8-.5-.7-.5-.7s.7.5-.4 1.1c-1.3.7-.1 2.5 1.8 2z"/>
    <path fill="#E4897B" d="M49.4 9.3c-.2.3-.5.4-.7.5-.4 0-.5-.3-.4-.6.1-.3.5-.7.8-.6.4 0 .5.4.3.7z"/>
    <path fill="#3F7BFF" d="M43.8 22.6s-1 9.2-1.1 12.7a83.5 83.5 0 0 0 3.5 15.1l1.8-.8s-2.1-10.4-1.8-14c.3-3.9 1.6-13 1.6-13h-4z"/>
    <path fill-opacity=".2" d="M46.4 25.1c-.9 1.7-.3 5.1.1 7.1l.6-4.4c0-2.2-.2-3.8-.7-2.7z"/>
    <path fill="#3F7BFF" d="m48 49 .2.6-2.2 1-.3-.7 2.2-.9zm-2-26.4s.8 8.8 1.3 12L50 50.4h2.1L50.7 35 50 22.6h-4z"/>
    <path fill="#3F7BFF" d="M52.3 49.8v.6H50l-.2-.7h2.5z"/>
    <path fill-opacity=".2" d="M51.5 49a619 619 0 0 1-2.1-25.2l.7 11.3a618.5 618.5 0 0 0 1.4 14z"/>
    <path fill="#263138" d="m47.2 8.4-.1.1-.1-.1v-.2c.1 0 .2 0 .2.2zm-1.1 0v.1l-.2-.1.1-.2.1.2z"/>
    <path fill="#DF5652" d="m46.5 8.4-.5.8c.1.2.4.1.4.1v-.9z"/>
    <path fill="#263138" d="M46.5 9.7c.4 0 .6-.3.6-.3s-.2.3-.6.3zm.9-1.6a.4.4 0 0 0-.5 0V8s.2-.2.5 0v.1zm-1.7-.3v-.1c.2-.2.5-.2.5-.2v.1l-.4.2z"/>
    <path fill="#E4897B" d="m51.5 14-1.6-.4s-1.6 3.9-2.1 4.1a33 33 0 0 0-3.5 2.1l.1.8c1.4-.2 4-1.2 4.6-1.7 1.2-1.2 2.5-4.9 2.5-4.9z"/>
    <path fill="#3F7BFF" d="m50.4 52-.2-.1s-.1 0 0-.1v-.1l.5.2h-.3zm-.2-.3v.2h.4a1 1 0 0 0-.4-.2z"/>
    <path fill="#3F7BFF" d="M50.7 52c-.2-.2-.4-.4-.3-.5v-.1h.2l.1.5zm-.2-.6c-.1.2 0 .3.1.4v-.3h-.1zm-4.2.4H46v-.2h.7l-.4.2zm-.2-.2H46v.1h.6l-.5-.1z"/>
    <path fill="#3F7BFF" d="M46.7 51.6c-.2 0-.5-.2-.5-.3.1-.1.2-.1.2 0 .2 0 .3.3.3.3zm-.4-.3.3.3c0-.1 0-.3-.2-.3h-.1z"/>
    <path fill="#E4897B" d="m44.5 19.7-1.6.8-.2.4.6.4s1-.1 1.4-.8l-.2-.8z"/>
    <path fill="#263138" d="M44.5 20.7c0-.6-.3-.9-.3-.9l.3-.2s.2.3.3 1h-.3z"/>
    <path fill="#263138" d="M44.8 20s0 .2-.2.3l-.4-.1c0-.2 0-.3.2-.4l.4.1z"/>
    <path fill="#E4897B" d="m41.8 21.1.2.2 1.4-.6-.5-.2z"/>
    <path fill-opacity=".2" d="m48 49 .2.6-2.2 1-.3-.7 2.2-.9zm4.3.8v.6H50l-.2-.7h2.5z"/>
    <path fill="#3F7BFF" d="M52 13.6c.3 1.4-1.3 3.2-1.3 3.2l-2.3-1 1-2.2c.6-1.5 2-1.4 2.5 0z"/>
    <path fill-opacity=".2" d="M52 13.6c.3 1.4-1.3 3.2-1.3 3.2l-2.3-1 1-2.2c.6-1.5 2-1.4 2.5 0z"/>
    <path fill="#3F7BFF" d="M29.3.2h-1V0h1zM42 8.9h-.1l.1-2.7h.1zM41.7.7H23.6l-1.7 37.6H40z"/>
    <path fill="#F9F9F9" fill-opacity=".6" d="M41.1 1.2h-18l-1.7 37.6h18.1z"/>
    <path fill="#3F7BFF" fill-opacity=".1" d="M40.6 1.7H22.5l-1.7 37.7h18.1z"/>
    <path fill="#fff" d="M38.5 18.1H23.1L23 21h15.4z"/>
    <path fill="#3F7BFF" d="M31.6 16h-8.4v1.3h8.3z"/>
    <path fill="#fff" d="M38.2 25.9H22.8l-.2 2.9h15.5z"/>
    <path fill="#3F7BFF" fill-opacity=".5" d="M35.4 32.7H25l-.2 3.4h10.4z"/>
    <path fill="#fff" d="M34.7 36.7H24.3l.1-3.5h10.4l-.1 3.5zm-10.4 0h10.4l.1-3.5H24.5l-.2 3.4z"/>
    <path fill="#3F7BFF" d="M29.8 23.8h-6.9l-.1 1.3h6.9z"/>
    <path fill="#fff" d="M35.2 8.9a4.1 4.1 0 0 1-4.1 4 3.7 3.7 0 0 1-3.8-4c.1-2.2 2-4 4.1-4 2.2 0 3.9 1.8 3.8 4z"/>
    <path fill="#3F7BFF" d="M35.5 5.8c0 .2 0 .4-.2.6a1 1 0 0 1-.9.4 1 1 0 0 1-1-1c0-.6.6-1 1.1-1 .6 0 1 .4 1 1z"/>
    <path fill="#263138" d="M24.8 19.6c0 .2-.2.5-.5.5a.4.4 0 0 1-.4-.5c0-.3.2-.5.4-.5.3 0 .5.2.5.5zm2 0c0 .2-.2.5-.4.5a.4.4 0 0 1-.5-.5c0-.3.2-.5.5-.5s.5.2.4.5zm2.2 0c-.1.2-.3.5-.6.5a.4.4 0 0 1-.4-.5c0-.3.2-.5.5-.5.2 0 .4.2.4.5zm-4.6 7.8c0 .2-.2.4-.5.4a.4.4 0 0 1-.4-.4c0-.3.2-.5.5-.5.2 0 .4.2.4.5zm2.1 0c0 .2-.2.4-.5.4a.4.4 0 0 1-.4-.4c0-.3.2-.5.5-.5.2 0 .4.2.4.5zm2.1 0c0 .2-.3.4-.5.4a.4.4 0 0 1-.5-.4c0-.3.3-.5.5-.5.3 0 .5.2.5.5zm2 0c0 .2-.2.4-.5.4a.4.4 0 0 1-.4-.4c0-.3.2-.5.5-.5.2 0 .4.2.4.5zm2.1 0c0 .2-.2.4-.5.4a.4.4 0 0 1-.4-.4c0-.3.2-.5.5-.5.2 0 .4.2.4.5z"/>
    <path fill="#3F7BFF" d="M32.9 7.5c0 1-.8 1.6-1.7 1.6-.8 0-1.5-.7-1.5-1.6 0-.8.8-1.5 1.7-1.5.8 0 1.5.7 1.5 1.5zm1.4 3.7a4 4 0 0 1-3.2 1.6c-1.3 0-2.5-.7-3.1-1.6.7-.8 1.9-1.3 3.2-1.3a4 4 0 0 1 3.1 1.3z"/>
    <path fill="#fff" fill-opacity=".1" d="M32.9 7.5c0 1-.8 1.6-1.7 1.6-.8 0-1.5-.7-1.5-1.6 0-.8.8-1.5 1.7-1.5.8 0 1.5.7 1.5 1.5zm1.4 3.7a4 4 0 0 1-3.2 1.6c-1.3 0-2.5-.7-3.1-1.6.7-.8 1.9-1.3 3.2-1.3a4 4 0 0 1 3.1 1.3z"/>
    <path fill="#E4897B" d="M11.8 21.7a21 21 0 0 0-1.4 4.2v.3c0 .1 0 .3.2.4l.6.7a10.3 10.3 0 0 0 1.8 1.4l-.3.5a11 11 0 0 1-2-1.1 5 5 0 0 1-1-1c-.1 0-.3-.3-.3-.6a1.4 1.4 0 0 1-.1-.5v-.3a11.9 11.9 0 0 1 .9-3.4l.5-1.1 1 .5z"/>
    <path fill="#E4897B" d="m12.8 28.6 1-.5-.2 1.2s-.8.2-1.1-.2l.3-.5z"/>
    <path fill="#E4897B" d="m14.9 28.3-.3.9-1 .1.3-1.2z"/>
    <path fill="#DF5652" d="m16.4 16 .2.6c-.1.1-.2 0-.2 0V16z"/>
    <path fill="#263138" d="M16.2 15.8c0 .1 0 .2.2.2v-.4l-.2.2z"/>
    <path fill="#263138" d="m16.3 15.7.3-.1s-.2.2-.3 0z"/>
    <path fill="#E4897B" d="M13.4 17.1c.1.7.3 2-.2 2.5 0 0 .2.7 1.5.7 1.4 0 .7-.7.7-.7-.8-.2-.8-.8-.6-1.3L13.4 17z"/>
    <path fill="#E4897B" d="M13 15.5c0 1.2 0 1.7.7 2.3.9 1 2.3.6 2.6-.6.3-1 .1-2.9-1-3.3-1.2-.5-2.4.4-2.3 1.6z"/>
    <path fill="#263138" d="M13.1 14.1c-.6.3-1.4.1-1 2 .3 1.9-.2 2.5-.2 2.5s2.2.5 4.5 0c0 0-.7-1.2-.5-2.1.3-1.2 0-1.6 0-1.6s-2-1-2.8-.8z"/>
    <path fill="#E4897B" d="m15.6 16.1.2.6c.2.3.4.2.4 0 0-.3 0-.7-.2-.9-.2-.1-.3 0-.4.3z"/>
    <path fill="#263138" d="M12.6 14.4c-.2-.5.6-1.3 2.4-1 1.7.3 1.8 1.8 1.8 1.8l-.4-.4v.4l-1.7.3-2.1-1.1z"/>
    <path fill="#3F7BFF" d="M12.8 19.7c0-.2 0-.3.2-.3a9 9 0 0 1 2.4-.2c.4 0 .5.3.5.5s0 .3-.2.3H13a.3.3 0 0 1-.2-.3z"/>
    <path fill-opacity=".6" d="M12.8 19.7c0-.2 0-.3.2-.3a9 9 0 0 1 2.4-.2c.4 0 .5.3.5.5s0 .3-.2.3H13a.3.3 0 0 1-.2-.3z"/>
    <path fill="#E4897B" d="m14.3 46.4 1 .7 1.6-2.2-1-.7zm-2.3 0 1 .6 1.5-2.4-1.1-.6z"/>
    <path fill="#CF6E64" d="m16.9 44.9-.8 1.1-1-.6.8-1.2zm-3.5-.9 1.1.6-.8 1.2-1-.6z"/>
    <path fill="#3F7BFF" d="M15.1 27.2s3.9 4.8 3.2 9.5c-.6 3.7-4 8.8-4 8.8l-1.6-.8s1.7-3.4 2.9-7c.4-1.4.2-3.1-.7-4.4-2-2.8-5-1.2-3-6.1h3.2z"/>
    <path fill-opacity=".6" d="M15.1 27.2s3.9 4.8 3.2 9.5c-.6 3.7-4 8.8-4 8.8l-1.6-.8s1.7-3.4 2.9-7c.4-1.4.2-3.1-.7-4.4-2-2.8-5-1.2-3-6.1h3.2z"/>
    <path fill-opacity=".4" d="m17 30.3-.5-.6 1.3 8.7.5-1.7c.3-2.3-.4-4.6-1.3-6.4z"/>
    <path fill="#3F7BFF" d="M16.8 27.2s4.7 6 4.8 9.7c.1 3.1-5 9-5 9L15 45s3-4.2 3.7-7.6c-.2-3.4-6.5-10.1-6.5-10.1h4.5z"/>
    <path fill-opacity=".6" d="M16.8 27.2s4.7 6 4.8 9.7c.1 3.1-5 9-5 9L15 45s3-4.2 3.7-7.6c-.2-3.4-6.5-10.1-6.5-10.1h4.5z"/>
    <path fill="#3F7BFF" d="M11.1 19.9c-.5.1-1 1.9-1 1.9l2 1.3s.6-1.4.4-2c-.2-.7-.8-1.4-1.4-1.2z"/>
    <path fill-opacity=".2" d="m11.5 21-.2 1.6.8.5.4-1.4-1-.7z"/>
    <path fill="#3F7BFF" d="M17.4 20s.6.1-.6 7.2H12c0-2 0-3.2-.9-7.3l2-.3a15.7 15.7 0 0 1 4.3.3z"/>
    <path fill="#E4897B" d="M18 21a43.1 43.1 0 0 0 .7 2l.3 1 .1.2v.1l-.2-.1h-.2l.2-.3.2-.5.4-1 .3-.9.4-1 .6.2a23 23 0 0 1-1 3.6 3.1 3.1 0 0 1-.4.7s-.1.2-.3.2a.7.7 0 0 1-.6 0l-.3-.3v-.1l-.1-.2-.1-.2a31 31 0 0 1-.9-2l-.4-1L18 21z"/>
    <path fill="#3F7BFF" d="M17.4 20c.6 0 1.3 1.8 1.3 1.8l-1.8 1.5s-1.1-2-.9-2.5c.3-.7.7-1 1.4-.9z"/>
    <path fill="#E4897B" d="m20.4 20 .7-.5.4.7-.3.5s-.5.5-1 .2a1 1 0 0 1 .2-.9z"/>
    <path fill="#E4897B" d="m22.2 19.5-.1.2-.9.1-.1-.3z"/>
    <path fill="#3F7BFF" d="m16.7 46-1.8-1.1.3-.6 2 1.2z"/>
    <path fill="#263138" d="M13.7 47a1 1 0 0 1-.4-.2v-.1h.6v.2h-.2zm-.3-.3c.2.1.3.2.4.1 0-.1-.3-.1-.4 0z"/>
    <path fill="#263138" d="M13.3 46.8s0-.4.2-.5h.1l.1.1-.4.4zm.3-.5-.3.4c.2 0 .4-.2.4-.3h-.1zm2.3 1.3c-.2 0-.4-.3-.5-.4 0 0 .6 0 .6.2v.2h-.1zm-.4-.4c.1.2.3.3.4.3.1 0 .1 0 0 0 0-.2-.2-.2-.4-.3z"/>
    <path fill="#263138" d="M15.5 47.2h-.1s.2-.3.4-.3h.1v.2l-.4.1zm0 0c.1 0 .4 0 .4-.2h-.1l-.4.2z"/>
    <path fill="#3F7BFF" d="m13.3 46.6-1.3-.4-.5 1 .1.3 1.3.3 1.3.5c.5.1.6-.4.5-.5-.9-.4-1-.7-1.2-1l-.2-.2z"/>
    <path fill="#3F7BFF" d="m15.4 47-1.1-.7h-.1l-.8.8v.2l1.1.8c.3.2 1 .6 1.3 1 .5.2.8-.2.6-.3-.6-.8-.8-1.2-.9-1.6l-.1-.2zm-.9-1.4-2-1 .2-.5 2.1 1zm-2.6-18.7-.2.4H17V27h-5.1z"/>
    <path fill="#fff" fill-opacity=".4" d="m11.9 26.9-.2.4H17V27h-5.1z"/>
    <path fill="#3F7BFF" d="M12.7 27.4h-.1v-.6h.2v.6h-.1zm3.1 0h-.1v-.6h.2v.6z"/>
    <path fill="#F4F4F4" d="M8.5 53c0 .2 1.8.4 4 .4 2.3 0 4.2-.2 4.2-.3 0-.2-1.8-.3-4.1-.3s-4.1.1-4.1.3z"/>
    <path fill="#DFDFDF" d="M15 52.6a10 10 0 0 1-2-.7v-3.3h1.5a.4.4 0 1 0 0-.9H13v-15h-.9v15h-1.4a.4.4 0 1 0 0 .9H12v3.3c-.5.3-1.3.5-2 .7-.3.1-.2.5 0 .5h5c.3 0 .3-.4 0-.5z"/>
    <path fill="#3F7BFF" d="M15.3 34.4H9.9a.8.8 0 0 1-.8-.8V32c0-.4.3-.8.8-.8h5.4c.4 0 .8.4.8.8v1.6c0 .4-.4.8-.8.8zm-5.5 0v.3c0 .2.3.4.6.4h4.4c.3 0 .5-.2.5-.4v-.3H9.8z"/>
    <path fill="#fff" fill-opacity=".3" d="M9.8 34.4v.3c0 .2.3.4.6.4h4.4c.3 0 .5-.2.5-.4v-.3H9.8z"/>
  </g>
</svg>
