<svg xmlns="http://www.w3.org/2000/svg" xml:space="preserve" fill-rule="evenodd" clip-rule="evenodd" image-rendering="optimizeQuality" shape-rendering="geometricPrecision" text-rendering="geometricPrecision" viewBox="0 0 50.46 37.72">
  <path fill-rule="nonzero" d="M9.98 19.6c0 2.16-.32 3.13-2.57 3.13H4.94V0h2.47c1.72 0 2.57.93 2.57 2.8v5.9c0 1.29-.46 2.1-1.39 2.43.93.3 1.4 1.11 1.4 2.45v6.03zm-.8-10.99V2.9C9.18.44 8.08.7 5.75.7v10.13c2.41 0 3.43.26 3.43-2.22zm0 11.27v-6.25c0-2.44-1.06-2.18-3.43-2.18v10.63c2.25 0 3.43.27 3.43-2.2zm8.34-6.04h-4.25v6.07c0 1.57.57 2.35 1.72 2.35s1.73-.78 1.73-2.34v-1.64h.8v1.6c0 2.02-.84 3.03-2.52 3.03-1.7 0-2.54-1.02-2.54-3.05V8.66c0-2.03.85-3.05 2.54-3.05 1.68 0 2.52 1.02 2.52 3.05v5.18zm-.8-.65V8.61c0-1.58-.58-2.37-1.73-2.37-1.13 0-1.72.8-1.72 2.37v4.58h3.45zm8.03 6.67c0 2.03-.85 3.05-2.55 3.05-1.68 0-2.52-1.02-2.52-3.05v-4.19c0-2.03.84-3.04 2.54-3.04.77 0 1.34.24 1.72.72V8.61c0-1.56-.58-2.35-1.73-2.35s-1.72.79-1.72 2.35v.78h-.81v-.73c0-2.03.84-3.05 2.52-3.05 1.7 0 2.55 1.02 2.55 3.05v11.2zm-.81.05v-4.29c0-1.56-.58-2.34-1.73-2.34s-1.72.78-1.72 2.34v4.3c0 1.57.57 2.36 1.72 2.36s1.73-.79 1.73-2.37zm8.42-.05c0 2.03-.85 3.05-2.55 3.05-1.68 0-2.52-1.02-2.52-3.05V5.6h.8v14.3c0 1.58.59 2.37 1.74 2.37s1.72-.8 1.72-2.37V5.6h.8v14.25zm6.56 2.87c-.7.42-2.34.37-2.91-.44-.33-.45-.5-1.24-.5-2.36V6.36h-.73v-.75h.74V1.26h.8v4.35h2.45v.75h-2.45v13.62c0 1.29.07 2.25 1.4 2.25.4 0 .72-.1.93-.32l.27.82zm7.22 3.25c0 2.04-.84 3.05-2.52 3.05-1.7 0-2.55-1.01-2.55-3.05v-.8h.81v.85c0 1.47.58 2.2 1.75 2.2 1.15 0 1.72-.73 1.7-2.2v-3.9c-.3.62-.87.93-1.72.93-1.7 0-2.54-1.02-2.54-3.05V5.6h.81v14.45c0 1.53.58 2.3 1.73 2.3s1.72-.77 1.72-2.3V5.6h.81v20.37z"/>
  <path fill="#D4AF5E" fill-rule="nonzero" d="M19.6 37.72c-.59 0-.7-1.5-.7-1.93l.18-2.56a21.7 21.7 0 0 1 1.18-4.42v-.05c-.27.1-.84.72-1.02.94-.24.3-.59.02-.17-.4.58-.59 1.32-.85 1.4-.99.1-.22.35-.66.62-.68.03 0 .52.03.55.3 0 .04 0 .06.03.06v.02c.28 0 .94-.22 1.55.28.91.76.04 2.34-.55 2.95-.5.51-1.52 1.36-2.2 1.36-.57 0-.55-.65-.2-1.05a8.14 8.14 0 0 1 1.84-1.4c.16-.09.43-.1.05.16-.46.32-1.87 1.42-1.87 1.97.53 0 1.37-.86 1.8-1.24.52-.47 1.91-2.06.95-2.67a1.88 1.88 0 0 0-1.43-.1c-.25.37-.48.75-.7 1.14a12.33 12.33 0 0 0-1.72 5.45c-.05.85-.1.89.02 1.76.18 1.34.6.8.6 1.03a.43.43 0 0 1-.22.07zm6.7-2.78c-.31 0-.56-.28-.74-.5-1.88-2.26-1.98-7.87-.96-10.67.98-2.7 3.72-3.46 2.63.84-.42 1.66-1.06 2.82-1.83 4.35-.2.38-.3.17-.09-.22a11.94 11.94 0 0 0 1.51-5.65c0-2.34-1.66-.63-2.09 1.7-.44 2.4-.2 5.64.47 8.02.14.52.45 1.48.83 1.78.37.3.46.14.46.27 0 .06-.06.08-.2.08zm.7-2.77c-.4 0-.48-.5-.47-.92 0-.71 1.02-3.76.8-4.61-.05-.16-.23-.17-.36-.03-.2.22-.31.4-.31.27 0-.78 1.44-1.5.91 1.46-.14.81-.58 2.34-.35 3.14.17.6.82-.24 1-.5.48-.68.93-1.72 1.27-2.47.19-.43.63-.23.63.18 0 .54-.19 1.02-.19 1.7 0 1.01.4.94.79.36.19-.28.52-.02.03.47-.3.3-.72.35-.96.06-.5-.62-.4-1.19-.47-1.72-.25.84-1.48 2.6-2.31 2.6zm5.34.85c-.4 0-.55-.5-.16-.97l.45-.55c-.47-.65-1.3-.77-1.83-2.03-.63-1.49.29-2.9 1.53-3.53.79-.4 2.01-.32 2.01.47 0 .58-.33.6-.33.11 0-.17 0-.28-.15-.41-.69-.57-2.68.94-2.68 2.82 0 1.2.85 1.66 1.58 2.44.71-.87 1.13-.8.73-.45l-.56.58c.8.9-.24 1.52-.58 1.52zm.19-.45c.25 0 .44-.7.25-.9-.15.18-.35.47-.35.7 0 .13.03.2.1.2z"/>
  <path d="m49.25 15.13-.26-.94-.95-.26.95-.27.26-.94.26.94.95.27-.95.26zm-48.04-.06-.26-.94-.95-.27.95-.26.26-.95.26.95.95.26-.95.27z"/>
</svg>
